<svg xmlns="http://www.w3.org/2000/svg" viewBox="0 0 365.36 380.84"><defs><style>.cls-1{fill:#fff;}.cls-2{fill:#231f20;}.cls-3{fill:#ff0;}.cls-4{fill:#ffff57;}.cls-5{fill:lime;}.cls-6{fill:#63ff63;}.cls-7{fill:#6ebdf5;}.cls-8{fill:#5959ff;}.cls-9{fill:blue;}.cls-10{fill:#806b91;}.cls-11{fill:#662d91;}.cls-12{fill:#ff7070;}.cls-13{fill:red;}.cls-14{fill:#f15a24;}.cls-15{fill:#f19371;}</style></defs><g id="Layer_2" data-name="Layer 2"><g id="Layer_1-2" data-name="Layer 1"><g id="logo"><path id="bg" class="cls-1" d="M314.81,369.25a8,8,0,0,1-7.22,11.59H57.46a8,8,0,0,1-7.23-11.59l20.64-42.1a182.68,182.68,0,1,1,223.39.17Z"/><g id="logo-2" data-name="logo"><path id="terarium" class="cls-2" d="M290.92,355.85,270,313.23a6.59,6.59,0,0,0-2.67-2.83v-129a84.68,84.68,0,1,0-169.35,0V310.27a6.57,6.57,0,0,0-2.89,3l-20.9,42.62a6.6,6.6,0,0,0,5.92,9.5H285A6.6,6.6,0,0,0,290.92,355.85Zm-28.64-46.32H103.07V181.44a79.61,79.61,0,0,1,159.21,0Z"/><g id="_7_lights" data-name="7 lights"><path class="cls-3" d="M93.29,172.26a90.14,90.14,0,0,0-.46,9.18V230l-53,11.76a14.52,14.52,0,0,1-17-9.77,168.75,168.75,0,0,1-3-90.61,14.53,14.53,0,0,1,23-8.06Z"/><polygon class="cls-4" points="151.36 217.03 108.66 226.5 108.66 184.11 151.36 217.03"/><path class="cls-5" d="M92.83,257.86v48.88l-6.77,7.13a4.18,4.18,0,0,1-5.57.45,168.76,168.76,0,0,1-27-26.12,14.52,14.52,0,0,1,8.08-23.4Z"/><path class="cls-6" d="M157.87,243.44,127.79,304.1H108.66V254.35l23.16-5.14Z"/><path class="cls-7" d="M207.3,304.1H158.14q12.27-24.77,24.55-49.52l6.57,13.21Z"/><path class="cls-8" d="M207.51,243.44l49.18,10.89V304.1h-19q-12-24.21-24.07-48.41Z"/><path class="cls-9" d="M311.93,288.18a168.5,168.5,0,0,1-27.21,26.24,4.16,4.16,0,0,1-5.56-.45l-6.63-7V257.84l31.31,6.94A14.52,14.52,0,0,1,311.93,288.18Z"/><polygon class="cls-10" points="214 217.03 256.69 184.11 256.69 226.49 214 217.03"/><path class="cls-11" d="M350.33,181.39A167.75,167.75,0,0,1,342.57,232a14.53,14.53,0,0,1-17,9.77L272.53,230V181.44c0-3.09-.16-6.15-.46-9.18l50.47-38.92a14.54,14.54,0,0,1,23,8.06A168.41,168.41,0,0,1,350.33,181.39Z"/><path class="cls-12" d="M251.37,153.88l-55.1,42.49v-87.7A74.27,74.27,0,0,1,251.37,153.88Z"/><path class="cls-13" d="M316.18,103.91l-51.86,40a89.86,89.86,0,0,0-68-51.28V30.83a14.55,14.55,0,0,1,17.25-14.27A167.69,167.69,0,0,1,319.09,83.89,14.56,14.56,0,0,1,316.18,103.91Z"/><path class="cls-14" d="M169.08,30.83V92.61a89.71,89.71,0,0,0-49.94,25.3,89.55,89.55,0,0,0-18.11,26l-51.86-40a14.56,14.56,0,0,1-2.9-20A167.66,167.66,0,0,1,151.84,16.56,14.54,14.54,0,0,1,169.08,30.83Z"/><path class="cls-15" d="M169.08,108.67v87.7L114,153.88A74.29,74.29,0,0,1,169.08,108.67Z"/></g><path id="art" class="cls-2" d="M182.68,245a1.53,1.53,0,0,1-1.08-.45l-24.51-24.69a1.57,1.57,0,0,1-.44-1.09,1.5,1.5,0,0,1,.46-1.07L171,204.07a1.54,1.54,0,0,1,1.07-.44h21.27a1.5,1.5,0,0,1,1.06.44l13.88,13.58a1.56,1.56,0,0,1,.45,1.08,1.45,1.45,0,0,1-.44,1.08l-24.5,24.7A1.5,1.5,0,0,1,182.68,245Zm-22.35-26.2,22.35,22.52L205,218.76l-12.33-12.08h-20Z"/></g></g></g></g></svg>