<svg xmlns="http://www.w3.org/2000/svg" viewBox="0 0 318 133.03"><defs><style>.cls-1{fill:#fff;}.cls-2{fill:#231f20;}.cls-3{fill:#ff0;}.cls-4{fill:#ffff57;}.cls-5{fill:lime;}.cls-6{fill:#63ff63;}.cls-7{fill:#6ebdf5;}.cls-8{fill:#5959ff;}.cls-9{fill:blue;}.cls-10{fill:#806b91;}.cls-11{fill:#662d91;}.cls-12{fill:#ff7070;}.cls-13{fill:red;}.cls-14{fill:#f15a24;}.cls-15{fill:#f19371;}</style></defs><g id="Layer_2" data-name="Layer 2"><g id="Banner_Logo" data-name="Banner Logo"><path class="cls-1" d="M18.05,132.79H300a18,18,0,0,0,18.05-18V60.3a35.5,35.5,0,0,0-35.5-35.5H18.05A18,18,0,0,0,0,42.85v71.89A18,18,0,0,0,18.05,132.79Z"/><g id="logo"><path id="bg" class="cls-1" d="M300.35,129a2.82,2.82,0,0,1-2.53,4.05H210.45a2.81,2.81,0,0,1-2.52-4.05l7.21-14.7a63.81,63.81,0,1,1,78,.06Z"/><g id="logo-2" data-name="logo"><path id="terarium" class="cls-2" d="M292,124.3l-7.3-14.89a2.4,2.4,0,0,0-.93-1v-45a29.61,29.61,0,0,0-41.1-27.26,29.64,29.64,0,0,0-15.73,15.74,29.32,29.32,0,0,0-2.33,11.52v45a2.29,2.29,0,0,0-1,1l-7.3,14.89a2.3,2.3,0,0,0,2.07,3.32h71.56A2.31,2.31,0,0,0,292,124.3Zm-10-16.18H226.38V63.38a27.81,27.81,0,1,1,55.61,0Z"/><g id="_7_lights" data-name="7 lights"><path class="cls-3" d="M223,60.17c-.1,1.06-.16,2.13-.16,3.21v17l-18.52,4.1A5.07,5.07,0,0,1,198.34,81a59.13,59.13,0,0,1-1-31.65,5.07,5.07,0,0,1,8-2.81Z"/><polygon class="cls-4" points="243.25 75.81 228.34 79.12 228.34 64.31 243.25 75.81"/><path class="cls-5" d="M222.8,90.07v17.08l-2.36,2.49a1.45,1.45,0,0,1-1.94.15,59.09,59.09,0,0,1-9.45-9.12,5.07,5.07,0,0,1,2.82-8.17Z"/><path class="cls-6" d="M245.52,85,235,106.22h-6.68V88.85l8.08-1.8Z"/><path class="cls-7" d="M262.79,106.22H245.62q4.29-8.64,8.57-17.29l2.3,4.61Z"/><path class="cls-8" d="M262.86,85,280,88.84v17.38H273.4q-4.22-8.44-8.41-16.91Z"/><path class="cls-9" d="M299.34,100.66a58.54,58.54,0,0,1-9.51,9.17,1.46,1.46,0,0,1-1.94-.16l-2.32-2.44V90.07l10.94,2.42A5.07,5.07,0,0,1,299.34,100.66Z"/><polygon class="cls-10" points="265.13 75.81 280.04 64.31 280.04 79.11 265.13 75.81"/><path class="cls-11" d="M312.75,63.36A58.57,58.57,0,0,1,310,81a5.07,5.07,0,0,1-5.93,3.41l-18.54-4.1v-17a31.08,31.08,0,0,0-.16-3.21l17.64-13.59a5.08,5.08,0,0,1,8,2.81A59,59,0,0,1,312.75,63.36Z"/><path class="cls-12" d="M278.18,53.75,258.94,68.59V38A26,26,0,0,1,278.18,53.75Z"/><path class="cls-13" d="M300.82,36.3l-18.11,14a31.35,31.35,0,0,0-23.77-17.91V10.77a5.08,5.08,0,0,1,6-5A58.61,58.61,0,0,1,301.84,29.3,5.1,5.1,0,0,1,300.82,36.3Z"/><path class="cls-14" d="M249.44,10.77V32.35a31.48,31.48,0,0,0-23.77,17.91l-18.11-14a5.08,5.08,0,0,1-1-7A58.61,58.61,0,0,1,243.42,5.78,5.08,5.08,0,0,1,249.44,10.77Z"/><path class="cls-15" d="M249.44,38V68.59L230.19,53.75A26,26,0,0,1,249.44,38Z"/></g><path id="art" class="cls-2" d="M254.19,85.57a.55.55,0,0,1-.38-.16l-8.56-8.63a.51.51,0,0,1-.15-.37.53.53,0,0,1,.16-.38l4.84-4.75a.51.51,0,0,1,.37-.15h7.43a.5.5,0,0,1,.37.15L263.12,76a.53.53,0,0,1,0,.75l-8.56,8.63A.55.55,0,0,1,254.19,85.57Zm-7.81-9.16,7.81,7.87,7.8-7.87-4.3-4.22h-7Z"/></g></g><path d="M23.26,117a.15.15,0,0,1-.13.09s-.08,0-.11-.09-.06-.11-.11-.18a.59.59,0,0,0-.2-.18.62.62,0,0,0-.36-.09,1.18,1.18,0,0,0-.46.11,2.9,2.9,0,0,0-.48.27,3.19,3.19,0,0,0-.46.38,3.25,3.25,0,0,0-.4.44,2.46,2.46,0,0,0-.28.44.9.9,0,0,0-.1.39c0,.18.13.33.4.47a5.19,5.19,0,0,0,1.3.38,4,4,0,0,1,.65.17,1.64,1.64,0,0,1,.46.22.89.89,0,0,1,.27.34,1.31,1.31,0,0,1,.09.52,2.08,2.08,0,0,1-.05.39,3.69,3.69,0,0,1-.11.45c-.05.14-.1.28-.15.4a1.3,1.3,0,0,1-.16.28A5.53,5.53,0,0,1,22,123a5.64,5.64,0,0,1-1.06.64,6.78,6.78,0,0,1-1.2.41,5.66,5.66,0,0,1-1.31.15,3.12,3.12,0,0,1-1.42-.28,2.49,2.49,0,0,1-.91-.7,2.57,2.57,0,0,1-.48-1,4.45,4.45,0,0,1-.14-1.08,5.16,5.16,0,0,1,.06-.79,4.29,4.29,0,0,1,.15-.73c.06-.24.13-.46.2-.67s.16-.4.24-.57a.69.69,0,0,1,.15-.22.45.45,0,0,1,.27-.06c.17,0,.26,0,.26.15a1.43,1.43,0,0,1-.08.26c-.05.14-.11.31-.17.51s-.12.42-.17.67a3.05,3.05,0,0,0-.08.74,2.9,2.9,0,0,0,.17,1.07,1.94,1.94,0,0,0,.5.76,2,2,0,0,0,.77.45,3.33,3.33,0,0,0,1,.15,4.43,4.43,0,0,0,1-.13,6.92,6.92,0,0,0,1.08-.38,6.34,6.34,0,0,0,1-.56,4,4,0,0,0,.77-.7.27.27,0,0,0-.05-.13.47.47,0,0,0-.2-.14,1.82,1.82,0,0,0-.4-.14,5.12,5.12,0,0,0-.66-.13,5.21,5.21,0,0,1-.77-.16,1.81,1.81,0,0,1-.58-.25,1,1,0,0,1-.51-1,3,3,0,0,1,.14-.86,4.74,4.74,0,0,1,.37-.87,5.41,5.41,0,0,1,.55-.8,4.24,4.24,0,0,1,.67-.67,3.79,3.79,0,0,1,.72-.46,1.79,1.79,0,0,1,.73-.16.91.91,0,0,1,.65.21.81.81,0,0,1,.22.57.88.88,0,0,1,0,.21l-.06.23a2.29,2.29,0,0,1-.1.23C23.33,116.91,23.29,117,23.26,117Z"/><path d="M28.46,114.25a1.85,1.85,0,0,1,.24-.29.4.4,0,0,1,.25-.11.58.58,0,0,1,.2.05,1.16,1.16,0,0,1,.29.2,1.63,1.63,0,0,1,.26.28.47.47,0,0,1,.1.3.64.64,0,0,1-.05.2,1.5,1.5,0,0,1-.16.3,1.48,1.48,0,0,1-.23.3.35.35,0,0,1-.25.11.5.5,0,0,1-.19,0,1.18,1.18,0,0,1-.3-.2,1.29,1.29,0,0,1-.25-.29.48.48,0,0,1-.1-.28.68.68,0,0,1,.05-.23A1.87,1.87,0,0,1,28.46,114.25Z"/><path d="M31.11,122a2.5,2.5,0,0,1-.71-.09,1.2,1.2,0,0,1-.53-.29,1.49,1.49,0,0,1-.38-.54,3.61,3.61,0,0,1-.25-.85L29,119.05h0a2.73,2.73,0,0,1-.21.47,1.64,1.64,0,0,1-.37.42,1.22,1.22,0,0,1-.19.12l-.23.07-.21,0h-.36c0,.12,0,.24,0,.36s0,.25,0,.36a4.16,4.16,0,0,1-.1.91,5,5,0,0,1-.28.93,5.92,5.92,0,0,1-.44.87,4.15,4.15,0,0,1-.58.72,2.6,2.6,0,0,1-.68.49,1.79,1.79,0,0,1-.77.19,3.15,3.15,0,0,1-.92-.15,4,4,0,0,1-1-.47l-.14-.1a.39.39,0,0,1-.08-.1.43.43,0,0,1-.05-.12,1,1,0,0,1,0-.18c0-.2,0-.31.12-.31a.41.41,0,0,1,.19.08c.08,0,.17.1.29.15a2.72,2.72,0,0,0,.38.16,1.35,1.35,0,0,0,.46.07,1.76,1.76,0,0,0,.74-.16,3.4,3.4,0,0,0,.71-.42,4.26,4.26,0,0,0,.61-.59,5.58,5.58,0,0,0,.5-.64,4,4,0,0,0,.32-.61,1.24,1.24,0,0,0,.11-.47,1.69,1.69,0,0,0,0-.38,3.37,3.37,0,0,0-.13-.38c-.06-.13-.12-.24-.18-.35a3.17,3.17,0,0,0-.21-.27.42.42,0,0,1-.08-.12.72.72,0,0,1,0-.17,1.25,1.25,0,0,1,.05-.32,3.09,3.09,0,0,1,.14-.32,1.24,1.24,0,0,1,.16-.24c.06-.06.1-.09.14-.09a.19.19,0,0,1,.12.07,1,1,0,0,0,.82.36,1.28,1.28,0,0,0,.77-.24,1.55,1.55,0,0,0,.49-.66.66.66,0,0,1,0-.15.68.68,0,0,1,0-.14,1.06,1.06,0,0,1,.1-.26,1.71,1.71,0,0,1,.14-.27,1.29,1.29,0,0,1,.17-.21.22.22,0,0,1,.16-.09l.06,0,0,0,.4,2.24a3.59,3.59,0,0,0,.2.76,1.55,1.55,0,0,0,.27.48,1,1,0,0,0,.38.26,1.48,1.48,0,0,0,.49.08Z"/><path d="M36.26,121.84a3.37,3.37,0,0,1-.52,0,4.62,4.62,0,0,1-.6-.13l-.62-.21-.59-.28a4.8,4.8,0,0,1-.67.37,4.71,4.71,0,0,1-.71.27,4,4,0,0,1-.73.17,4.53,4.53,0,0,1-.71.06.69.69,0,0,1-.2,0l-.18-.09a.75.75,0,0,1-.15-.16.34.34,0,0,1-.06-.2v-.37a.29.29,0,0,1,.07-.18.5.5,0,0,1,.16-.11.57.57,0,0,1,.22-.07,1,1,0,0,1,.24,0,4.91,4.91,0,0,0,.86-.08,3.4,3.4,0,0,0,.78-.23,1.69,1.69,0,0,1-.36-.45,1.3,1.3,0,0,1-.16-.67,2.06,2.06,0,0,1,.1-.63,3.33,3.33,0,0,1,.68-1.17,3.2,3.2,0,0,1,.48-.44v0l-.24-.05-.17,0a.16.16,0,0,1-.09-.16.69.69,0,0,1,0-.16c0-.08,0-.16.07-.26s.06-.18.1-.28a1.69,1.69,0,0,1,.1-.27,1.84,1.84,0,0,1,.13-.25.25.25,0,0,1,.18-.08.37.37,0,0,1,.15,0l.21.11.22.14.18.12a14.46,14.46,0,0,1,1.14.89,6.91,6.91,0,0,1,1,1,4.75,4.75,0,0,1,.66,1.08,2.94,2.94,0,0,1,.24,1.16,1.47,1.47,0,0,1-.07.46,2.24,2.24,0,0,1-.43.81,2.09,2.09,0,0,1-.29.3A.62.62,0,0,1,36.26,121.84ZM34,120a2.59,2.59,0,0,0,.31-.19,1.49,1.49,0,0,0,.28-.23,2,2,0,0,0,.24-.26A1.91,1.91,0,0,0,35,119a2.73,2.73,0,0,0-.07-.51,2,2,0,0,0-.16-.42,1.18,1.18,0,0,0-.23-.29.45.45,0,0,0-.28-.11,1,1,0,0,0-.33.08,1.49,1.49,0,0,0-.37.23,2.54,2.54,0,0,0-.34.38,1.73,1.73,0,0,0-.22.52,1,1,0,0,0,.29.65A1.84,1.84,0,0,0,34,120Zm2.93.39a1.22,1.22,0,0,0-.09-.41,3.67,3.67,0,0,0-.27-.51,4,4,0,0,0-.42-.58,6.21,6.21,0,0,0-.57-.58l0,0q0,.11,0,.24a1.85,1.85,0,0,1,0,.23,1.69,1.69,0,0,1,0,.38,2.21,2.21,0,0,1-.14.41,3.72,3.72,0,0,1-.21.39,3.37,3.37,0,0,1-.29.35l.61.19a3.19,3.19,0,0,0,.63.12,1.57,1.57,0,0,0,.45,0A.53.53,0,0,0,36.89,120.38Z"/><path d="M46.31,119.29a1.87,1.87,0,0,1,0,.4c0,.14-.07.27-.11.4a2.28,2.28,0,0,1-.17.35,1.59,1.59,0,0,1-.21.27.32.32,0,0,1-.26.12,3.36,3.36,0,0,1-.6-.09l-.66-.16-.63-.13a1.86,1.86,0,0,0-.57,0,1.13,1.13,0,0,0-.41.16,1.49,1.49,0,0,0-.34.39c0,.37.1.76.18,1.16s.15.82.22,1.24.15.86.21,1.3A11.69,11.69,0,0,1,43,126a1.1,1.1,0,0,1,0,.25,2.51,2.51,0,0,1,0,.27l-.06.28a1.37,1.37,0,0,1-.07.24.35.35,0,0,1-.06.09s-.06,0-.14,0-.19,0-.19-.12c0-.25,0-.51,0-.77s0-.54-.09-.82-.11-.69-.18-1-.13-.7-.2-1l-.18-1c-.06-.32-.1-.62-.13-.9a3.69,3.69,0,0,1,.14-.84,3.11,3.11,0,0,1,.28-.69,1.66,1.66,0,0,1,.39-.47.91.91,0,0,1,.47-.21,2,2,0,0,1,.6,0,5,5,0,0,1,.66.11l.6.13a1.88,1.88,0,0,0,.38.06.16.16,0,0,0,.11,0,.32.32,0,0,0,0-.14,1.55,1.55,0,0,0-.13-.48,2.41,2.41,0,0,0-.26-.46l-.16-.18a1.2,1.2,0,0,0-.21-.17,1.33,1.33,0,0,0-.24-.11.76.76,0,0,0-.27,0,.6.6,0,0,0-.29.08,1.21,1.21,0,0,0-.26.2,1.39,1.39,0,0,0-.21.27,1.82,1.82,0,0,0-.15.27q0,.08-.21,0a.22.22,0,0,1-.11-.1.16.16,0,0,1,0-.12,3.4,3.4,0,0,1,.71-1.35,1.24,1.24,0,0,1,.88-.45,1.21,1.21,0,0,1,.6.15,2,2,0,0,1,.49.38,3.31,3.31,0,0,1,.38.52,4.26,4.26,0,0,1,.27.58,3.42,3.42,0,0,1,.17.55A1.81,1.81,0,0,1,46.31,119.29Z"/><path d="M48.61,118.77a.41.41,0,0,1-.08-.14.32.32,0,0,1,0-.14,1.48,1.48,0,0,1,0-.34c0-.12.06-.24.09-.36a1.57,1.57,0,0,1,.14-.29c0-.08.09-.12.14-.12a.17.17,0,0,1,.12.07l.13.18a4.91,4.91,0,0,1,.34.61,4.7,4.7,0,0,1,.29.72,5.73,5.73,0,0,1,.21.84,5.82,5.82,0,0,1,.07,1,4.49,4.49,0,0,1-.1.94,5.57,5.57,0,0,1-.29,1,6,6,0,0,1-.45.92,4.19,4.19,0,0,1-.6.76,2.87,2.87,0,0,1-.7.53,1.84,1.84,0,0,1-.79.19,3.56,3.56,0,0,1-.93-.14,4.24,4.24,0,0,1-1-.48l-.14-.1a.38.38,0,0,1-.09-.09.56.56,0,0,1,0-.12,1,1,0,0,1,0-.19c0-.2,0-.3.13-.3a.53.53,0,0,1,.18.07l.28.16a2.59,2.59,0,0,0,.37.15,1.33,1.33,0,0,0,.45.07,2.1,2.1,0,0,0,.81-.17,3.75,3.75,0,0,0,.74-.45,4.1,4.1,0,0,0,.64-.61,5,5,0,0,0,.51-.67,4.36,4.36,0,0,0,.33-.64,1.38,1.38,0,0,0,.12-.49,1.93,1.93,0,0,0-.08-.46,6,6,0,0,0-.2-.6,5.92,5.92,0,0,0-.28-.64C48.82,119.14,48.71,119,48.61,118.77Zm-.69-4.17a1.18,1.18,0,0,1,.23-.29.37.37,0,0,1,.26-.12.59.59,0,0,1,.19,0,1.26,1.26,0,0,1,.29.21,1.42,1.42,0,0,1,.27.28.5.5,0,0,1,.09.29.59.59,0,0,1,0,.21,3.08,3.08,0,0,1-.16.29,1.31,1.31,0,0,1-.24.3.35.35,0,0,1-.25.12.59.59,0,0,1-.19,0,1.57,1.57,0,0,1-.55-.49.51.51,0,0,1-.09-.28.7.7,0,0,1,0-.23A1.62,1.62,0,0,1,47.92,114.6Z"/><path d="M52.24,121.85a.15.15,0,0,1,0,.08.39.39,0,0,1-.3,0,.11.11,0,0,1,0-.08v-.39a4,4,0,0,0,0-.49c0-.35,0-.73-.06-1.12s0-.8-.09-1.2-.07-.81-.1-1.21-.07-.78-.1-1.14,0-.71-.07-1,0-.59,0-.83a1,1,0,0,1,.09-.39,2.65,2.65,0,0,1,.22-.4,1.45,1.45,0,0,1,.2-.29c.06-.08.11-.12.16-.12a.07.07,0,0,1,.08.08c0,.32,0,.66.06,1s0,.76.07,1.16.06.79.08,1.19.06.78.08,1.14,0,.7.06,1,0,.57,0,.79a8.88,8.88,0,0,1-.09,1.37A5.26,5.26,0,0,1,52.24,121.85Z"/><path d="M57.94,122a6.91,6.91,0,0,1-.4,1.5,5.77,5.77,0,0,1-.69,1.28,3.75,3.75,0,0,1-.94.89,2.16,2.16,0,0,1-1.15.33,3.56,3.56,0,0,1-.91-.13,3.6,3.6,0,0,1-1.07-.46.53.53,0,0,1-.22-.18.62.62,0,0,1-.06-.32c0-.2,0-.3.13-.3a.4.4,0,0,1,.17.08l.29.15a3.17,3.17,0,0,0,.37.16,1.25,1.25,0,0,0,.43.07,2.56,2.56,0,0,0,.76-.12,3.21,3.21,0,0,0,.73-.34,3.89,3.89,0,0,0,.66-.51,4.92,4.92,0,0,0,.57-.64,4,4,0,0,0,.42-.72,3.15,3.15,0,0,0,.25-.75l-.5,0a5.44,5.44,0,0,1-.58-.05,2.23,2.23,0,0,1-.59-.16,1.47,1.47,0,0,1-.48-.31,1.38,1.38,0,0,1-.31-.47,1.45,1.45,0,0,1-.11-.61,3.29,3.29,0,0,1,.53-1.84,2.07,2.07,0,0,1,.54-.56,1.07,1.07,0,0,1,.61-.21A1,1,0,0,1,57,118a2,2,0,0,1,.49.66,3.85,3.85,0,0,1,.33,1,5.93,5.93,0,0,1,.14,1.15h1L58.91,122Zm-.77-1.28a3.08,3.08,0,0,0-.38-1.28.8.8,0,0,0-.65-.45.64.64,0,0,0-.31.07,1,1,0,0,0-.24.21,1.05,1.05,0,0,0-.17.29,1.29,1.29,0,0,0-.08.31.79.79,0,0,0,.47.64,2.13,2.13,0,0,0,.55.16A4.81,4.81,0,0,0,57.17,120.76Z"/><path d="M60.93,114.94c0,.37,0,.75.08,1.15l.09,1.18c0,.39,0,.75.07,1.11s0,.66,0,.94a3.79,3.79,0,0,1-.06.67,3.66,3.66,0,0,1-.14.63,3.19,3.19,0,0,1-.2.51,1,1,0,0,1-.2.32,2,2,0,0,1-.72.43,2.7,2.7,0,0,1-1,.16l-.19,0a.66.66,0,0,1-.19-.09,1.07,1.07,0,0,1-.14-.16.34.34,0,0,1-.06-.2v-.37a.28.28,0,0,1,.06-.18.64.64,0,0,1,.16-.11.57.57,0,0,1,.22-.07,1.06,1.06,0,0,1,.24,0,2.5,2.5,0,0,0,.9-.15,1.17,1.17,0,0,0,.6-.49v-.42c0-.14,0-.28,0-.42,0-.37-.07-.75-.11-1.13s-.07-.75-.1-1.11-.07-.72-.1-1.06,0-.66-.06-1c0-.08,0-.16,0-.24a1,1,0,0,1,0-.25.68.68,0,0,1-.17-.3,1.4,1.4,0,0,1-.05-.34,1.47,1.47,0,0,1,.15-.61,5.07,5.07,0,0,1,.37-.64s0-.06.07-.06.07,0,.07.06a1.59,1.59,0,0,0,0,.26,1.22,1.22,0,0,0,.1.24,2.77,2.77,0,0,0,.19.25,3.85,3.85,0,0,0,.3.34.92.92,0,0,1,.12.16.35.35,0,0,1,0,.14.74.74,0,0,1,0,.23,2,2,0,0,1-.1.26,1.36,1.36,0,0,1-.13.24A.4.4,0,0,1,60.93,114.94Z"/><path d="M70.63,116.38a.94.94,0,0,1,.2-.26.3.3,0,0,1,.22-.1.45.45,0,0,1,.18,0,1.8,1.8,0,0,1,.25.18.72.72,0,0,1,.31.52.54.54,0,0,1,0,.19,1.09,1.09,0,0,1-.13.27,1.59,1.59,0,0,1-.21.27.34.34,0,0,1-.22.1.38.38,0,0,1-.17,0,1.23,1.23,0,0,1-.26-.18,1.05,1.05,0,0,1-.22-.26.46.46,0,0,1-.08-.26.76.76,0,0,1,0-.21A1.37,1.37,0,0,1,70.63,116.38Zm1.45-.11a1.11,1.11,0,0,1,.2-.26.3.3,0,0,1,.22-.1.38.38,0,0,1,.17,0,1.23,1.23,0,0,1,.26.18.73.73,0,0,1,.32.52.81.81,0,0,1,0,.19,1.62,1.62,0,0,1-.13.27,2.3,2.3,0,0,1-.22.27.35.35,0,0,1-.22.09.38.38,0,0,1-.17,0,1.23,1.23,0,0,1-.26-.18A1.05,1.05,0,0,1,72,117a.43.43,0,0,1-.09-.25.51.51,0,0,1,0-.2A1.17,1.17,0,0,1,72.08,116.27Z"/><path d="M75.09,122H75a1.53,1.53,0,0,1-.61-.1,1.31,1.31,0,0,1-.41-.26,1.41,1.41,0,0,1-.27-.37c-.08-.13-.15-.27-.23-.42l-.2-.38a1.48,1.48,0,0,0-.21-.32,1,1,0,0,0-.28-.22,1,1,0,0,0-.41-.08,2.77,2.77,0,0,0-.86.14,3.33,3.33,0,0,0-.71.33,1.94,1.94,0,0,0-.48.39.54.54,0,0,0-.18.31c0,.18.12.31.34.4a9.16,9.16,0,0,0,1.06.27,3,3,0,0,1,.56.15,1.17,1.17,0,0,1,.4.21.82.82,0,0,1,.23.32,1.18,1.18,0,0,1,.07.45,1.59,1.59,0,0,1,0,.36c0,.13-.06.26-.1.39a2.83,2.83,0,0,1-.15.35,1.5,1.5,0,0,1-.15.26,5.17,5.17,0,0,1-.77.7,4.56,4.56,0,0,1-.93.55,5.09,5.09,0,0,1-1.06.36,5.5,5.5,0,0,1-1.16.12,3.22,3.22,0,0,1-1.41-.27,2.49,2.49,0,0,1-.91-.7,2.58,2.58,0,0,1-.47-1,4.46,4.46,0,0,1-.14-1.09,4.9,4.9,0,0,1,.06-.77c0-.25.09-.5.15-.74a6.56,6.56,0,0,1,.21-.67c.08-.21.15-.4.23-.57a.65.65,0,0,1,.15-.23.56.56,0,0,1,.27,0c.17,0,.26,0,.26.13a1.24,1.24,0,0,1-.08.27c-.05.14-.11.31-.17.51a5,5,0,0,0-.17.67,3.19,3.19,0,0,0-.08.75,2.9,2.9,0,0,0,.17,1.07A2,2,0,0,0,67,124a2,2,0,0,0,.77.45,3.2,3.2,0,0,0,1,.15,3.74,3.74,0,0,0,.91-.12,6.39,6.39,0,0,0,.93-.32,5.18,5.18,0,0,0,.86-.49,2.78,2.78,0,0,0,.66-.61.16.16,0,0,0,0-.12.52.52,0,0,0-.19-.12,2.5,2.5,0,0,0-.36-.12l-.56-.12-.57-.11a2.08,2.08,0,0,1-.48-.17.87.87,0,0,1-.33-.3.81.81,0,0,1-.13-.49,1.88,1.88,0,0,1,.14-.68,2.89,2.89,0,0,1,.36-.67,5,5,0,0,1,.54-.6,4.26,4.26,0,0,1,.65-.49,2.92,2.92,0,0,1,.7-.32,2.24,2.24,0,0,1,.7-.12,1.43,1.43,0,0,1,.58.11,1.45,1.45,0,0,1,.42.3,2,2,0,0,1,.31.4c.09.15.17.29.24.43a3.44,3.44,0,0,0,.21.39,1.05,1.05,0,0,0,.22.28,1,1,0,0,0,.28.17,1,1,0,0,0,.37.06Z"/><path d="M75.09,122l-.19,0a.66.66,0,0,1-.19-.09,1.07,1.07,0,0,1-.14-.16.34.34,0,0,1-.06-.2v-.37a.28.28,0,0,1,.06-.18.64.64,0,0,1,.16-.11.57.57,0,0,1,.22-.07,1.06,1.06,0,0,1,.24,0,3.64,3.64,0,0,0,.57,0,4.85,4.85,0,0,0,.55-.09,4.7,4.7,0,0,0,.49-.16,1.74,1.74,0,0,0,.41-.21,5.3,5.3,0,0,0-.18-.88,5.17,5.17,0,0,0-.46-1,.41.41,0,0,1-.08-.14.27.27,0,0,1,0-.16.84.84,0,0,1,.05-.29,1.83,1.83,0,0,1,.14-.32,1.05,1.05,0,0,1,.16-.26c.06-.08.11-.11.15-.11a.14.14,0,0,1,.1,0,1.13,1.13,0,0,1,.13.19,4,4,0,0,1,.25.47c.08.19.16.39.23.6a7,7,0,0,1,.16.69,3.71,3.71,0,0,1-.15,2,.7.7,0,0,1-.11.23.73.73,0,0,1-.18.16,4.34,4.34,0,0,1-1,.4A4.85,4.85,0,0,1,75.09,122Zm.82-7.75a1.48,1.48,0,0,1,.24-.29.34.34,0,0,1,.25-.11.42.42,0,0,1,.2,0,1.15,1.15,0,0,1,.28.2,1.17,1.17,0,0,1,.27.28.46.46,0,0,1,.1.29.63.63,0,0,1,0,.21,1.24,1.24,0,0,1-.16.29,1.07,1.07,0,0,1-.23.3.37.37,0,0,1-.26.12.55.55,0,0,1-.18,0,1.1,1.1,0,0,1-.3-.19,1.33,1.33,0,0,1-.25-.3.46.46,0,0,1-.1-.28.74.74,0,0,1,0-.23A1.07,1.07,0,0,1,75.91,114.29Z"/><path d="M82,114.44a1.48,1.48,0,0,1,.21-.26.3.3,0,0,1,.39-.05,1.23,1.23,0,0,1,.25.17.7.7,0,0,1,.32.52.5.5,0,0,1,0,.19,1.09,1.09,0,0,1-.13.27,1.6,1.6,0,0,1-.22.27.28.28,0,0,1-.22.1.45.45,0,0,1-.17,0,.92.92,0,0,1-.25-.18,1.1,1.1,0,0,1-.23-.26.56.56,0,0,1-.08-.26.59.59,0,0,1,0-.21A2.08,2.08,0,0,1,82,114.44Zm1.46-.11a1.34,1.34,0,0,1,.19-.26.32.32,0,0,1,.23-.1.68.68,0,0,1,.17,0,1.23,1.23,0,0,1,.26.18.72.72,0,0,1,.31.52.5.5,0,0,1,0,.19,1.09,1.09,0,0,1-.13.27,1.06,1.06,0,0,1-.22.27.34.34,0,0,1-.21.1.49.49,0,0,1-.18-.05,1.22,1.22,0,0,1-.25-.18,1.31,1.31,0,0,1-.23-.25.52.52,0,0,1-.08-.26.81.81,0,0,1,0-.2A1.29,1.29,0,0,1,83.47,114.33Z"/><path d="M85.31,122a2.43,2.43,0,0,1-.7-.09,1.15,1.15,0,0,1-.53-.29,1.49,1.49,0,0,1-.38-.54,3.61,3.61,0,0,1-.25-.85l-.25-1.22h0a2.19,2.19,0,0,1-.22.47,1.44,1.44,0,0,1-.36.42,1,1,0,0,1-.2.12l-.22.07-.21,0h-.36c0,.12,0,.24,0,.36s0,.25,0,.36a4.16,4.16,0,0,1-.1.91,5,5,0,0,1-.28.93,7.09,7.09,0,0,1-.44.87,4.68,4.68,0,0,1-.58.72,2.49,2.49,0,0,1-.69.49,1.71,1.71,0,0,1-.76.19,3.21,3.21,0,0,1-.93-.15,3.84,3.84,0,0,1-1-.47.85.85,0,0,1-.14-.1.39.39,0,0,1-.08-.1.26.26,0,0,1,0-.12,1,1,0,0,1,0-.18c0-.2,0-.31.12-.31a.41.41,0,0,1,.19.08c.08,0,.17.1.29.15a2.57,2.57,0,0,0,.37.16A1.45,1.45,0,0,0,78,124a1.76,1.76,0,0,0,.74-.16,3.68,3.68,0,0,0,.71-.42,4.85,4.85,0,0,0,.61-.59,4.55,4.55,0,0,0,.49-.64,4.16,4.16,0,0,0,.33-.61,1.47,1.47,0,0,0,.11-.47,1.28,1.28,0,0,0,0-.38,2.11,2.11,0,0,0-.12-.38,2.89,2.89,0,0,0-.19-.35,1.89,1.89,0,0,0-.2-.27.28.28,0,0,1-.08-.12.42.42,0,0,1,0-.17,1.25,1.25,0,0,1,0-.32,3.09,3.09,0,0,1,.14-.32.91.91,0,0,1,.16-.24c.06-.06.1-.09.14-.09a.16.16,0,0,1,.11.07,1.07,1.07,0,0,0,.83.36,1.28,1.28,0,0,0,.77-.24A1.45,1.45,0,0,0,83,118c0-.06,0-.11,0-.15l0-.14a1.06,1.06,0,0,1,.1-.26,1.71,1.71,0,0,1,.14-.27.92.92,0,0,1,.17-.21.22.22,0,0,1,.15-.09.08.08,0,0,1,.06,0,.1.1,0,0,1,0,0l.4,2.24a4.41,4.41,0,0,0,.19.76,1.56,1.56,0,0,0,.28.48.89.89,0,0,0,.38.26,1.44,1.44,0,0,0,.49.08Z"/><path d="M89.23,122a1.93,1.93,0,0,1-1.09-.29,1.63,1.63,0,0,1-.65-1h0c-.07.13-.15.27-.25.42a2.57,2.57,0,0,1-.3.33,1.33,1.33,0,0,1-.34.22,1.76,1.76,0,0,1-.4.16,2.07,2.07,0,0,1-.43.1,2.15,2.15,0,0,1-.43,0l-.18,0a.56.56,0,0,1-.19-.09.75.75,0,0,1-.15-.16.34.34,0,0,1-.06-.2v-.37a.28.28,0,0,1,.06-.18.71.71,0,0,1,.17-.11.52.52,0,0,1,.22-.07,1,1,0,0,1,.24,0,1.37,1.37,0,0,0,.34,0l.35-.08a2.08,2.08,0,0,0,.3-.13,1.46,1.46,0,0,0,.24-.17,1.06,1.06,0,0,0,.22-.3,3.62,3.62,0,0,0,.2-.44c.06-.17.11-.35.16-.53s.09-.38.13-.57a.62.62,0,0,1,0-.1.19.19,0,0,1,.08-.07.39.39,0,0,1,.15,0h.28c.11,0,.16,0,.16.14s0,.11,0,.2,0,.19-.06.3l-.06.34c0,.11,0,.22-.07.31a1.19,1.19,0,0,0,.45.9,1.68,1.68,0,0,0,1,.29Zm-2.82-6.35a1.4,1.4,0,0,1,.23-.29.4.4,0,0,1,.26-.11.54.54,0,0,1,.19,0,1.52,1.52,0,0,1,.29.2,2.3,2.3,0,0,1,.27.28.53.53,0,0,1,.09.3.63.63,0,0,1,0,.21,1.77,1.77,0,0,1-.16.29,1.31,1.31,0,0,1-.24.3.35.35,0,0,1-.25.12.59.59,0,0,1-.19-.05,1.57,1.57,0,0,1-.55-.49.54.54,0,0,1-.09-.28.7.7,0,0,1,0-.23A2.07,2.07,0,0,1,86.41,115.69Z"/><path d="M89.23,122,89,122a.66.66,0,0,1-.19-.09.7.7,0,0,1-.14-.16.34.34,0,0,1-.06-.2v-.37a.28.28,0,0,1,.06-.18.64.64,0,0,1,.16-.11.57.57,0,0,1,.22-.07,1,1,0,0,1,.24,0,3.64,3.64,0,0,0,.57,0,4.85,4.85,0,0,0,.55-.09,4.7,4.7,0,0,0,.49-.16,1.74,1.74,0,0,0,.41-.21,5.3,5.3,0,0,0-.18-.88,5.17,5.17,0,0,0-.46-1,.41.41,0,0,1-.08-.14.27.27,0,0,1,0-.16.88.88,0,0,1,.06-.29,1.83,1.83,0,0,1,.14-.32,1.05,1.05,0,0,1,.16-.26c.06-.08.11-.11.15-.11a.14.14,0,0,1,.1,0,1.13,1.13,0,0,1,.13.19,4,4,0,0,1,.25.47c.08.19.16.39.23.6a7,7,0,0,1,.16.69,3.59,3.59,0,0,1,0,1.36,4.75,4.75,0,0,1-.16.6.7.7,0,0,1-.11.23.73.73,0,0,1-.18.16,4.34,4.34,0,0,1-1,.4A4.85,4.85,0,0,1,89.23,122Zm0,1.82a1.11,1.11,0,0,1,.2-.26.32.32,0,0,1,.22-.1.45.45,0,0,1,.18,0,1.35,1.35,0,0,1,.25.18.73.73,0,0,1,.32.52.81.81,0,0,1,0,.19,1.62,1.62,0,0,1-.13.27A2.3,2.3,0,0,1,90,125a.3.3,0,0,1-.22.1.38.38,0,0,1-.17,0,1,1,0,0,1-.25-.18.92.92,0,0,1-.23-.26.46.46,0,0,1-.08-.26.52.52,0,0,1,0-.21A1.25,1.25,0,0,1,89.23,123.86Zm1.45-.11a1.11,1.11,0,0,1,.2-.26.3.3,0,0,1,.22-.1.38.38,0,0,1,.17,0,1,1,0,0,1,.26.18.73.73,0,0,1,.32.52.5.5,0,0,1,0,.19,1.62,1.62,0,0,1-.13.27,2.3,2.3,0,0,1-.22.27.34.34,0,0,1-.22.1.45.45,0,0,1-.17,0,1.23,1.23,0,0,1-.26-.18,1.32,1.32,0,0,1-.22-.26.43.43,0,0,1-.09-.25.51.51,0,0,1,0-.2A1.17,1.17,0,0,1,90.68,123.75Z"/><path d="M94.22,121.85a.16.16,0,0,1,0,.08.22.22,0,0,1-.14,0,.24.24,0,0,1-.15,0,.09.09,0,0,1,0-.08V121c0-.35,0-.73-.06-1.12l-.09-1.2c0-.41-.07-.81-.1-1.21s-.07-.78-.1-1.14-.06-.71-.07-1,0-.59,0-.83a1,1,0,0,1,.09-.39,2.56,2.56,0,0,1,.21-.4,2,2,0,0,1,.2-.29c.06-.08.12-.12.17-.12a.07.07,0,0,1,.08.08c0,.32,0,.66.05,1s0,.76.08,1.16,0,.79.08,1.19,0,.78.08,1.14,0,.7,0,1,0,.57,0,.79a8.75,8.75,0,0,1-.1,1.37A5.51,5.51,0,0,1,94.22,121.85Z"/><path d="M99.65,116.41a1.06,1.06,0,0,1,.27.07,4.61,4.61,0,0,1,.82.4,2.81,2.81,0,0,1,.36.24,5.12,5.12,0,0,1,.58.5,2.21,2.21,0,0,1,.38.5,2,2,0,0,1,.22.61,3.88,3.88,0,0,1,.07.81,2.67,2.67,0,0,1,0,.48,2.56,2.56,0,0,1-.1.48,3.34,3.34,0,0,1-.17.44,1.79,1.79,0,0,1-.21.36,1.56,1.56,0,0,1-.26.25,2,2,0,0,1-.38.24,2.35,2.35,0,0,1-.49.16,2.37,2.37,0,0,1-.61.07A1.31,1.31,0,0,1,99,121.6a2.08,2.08,0,0,1-.33-1.29,3.88,3.88,0,0,1,.06-.67,5.23,5.23,0,0,1,.18-.68c.07-.23.15-.44.24-.66s.19-.41.28-.6l-.13-.07a.14.14,0,0,1-.06-.11,1.25,1.25,0,0,1,0-.26,3,3,0,0,1,.11-.37,1.72,1.72,0,0,1,.14-.33C99.57,116.46,99.62,116.41,99.65,116.41Zm2.15,3.4a1,1,0,0,0-.17-.51,2.14,2.14,0,0,0-.41-.51,4.06,4.06,0,0,0-.55-.46,3.73,3.73,0,0,0-.6-.35,4.43,4.43,0,0,0-.28.37,3.35,3.35,0,0,0-.27.45,2.37,2.37,0,0,0-.2.47,1.35,1.35,0,0,0-.08.42,1.32,1.32,0,0,0,.05.32,1.14,1.14,0,0,0,.18.32.85.85,0,0,0,.33.25,1.06,1.06,0,0,0,.5.1,2,2,0,0,0,.61-.08,1.94,1.94,0,0,0,.48-.22,1,1,0,0,0,.3-.28A.53.53,0,0,0,101.8,119.81Z"/><path d="M106,122a2.29,2.29,0,0,1-.83-.14,1.5,1.5,0,0,1-.58-.45,2.3,2.3,0,0,1-.36-.77,6.2,6.2,0,0,1-.17-1.11c0-.43,0-.88-.08-1.35s0-.92-.08-1.38-.06-.91-.09-1.35-.08-.86-.13-1.26a1.16,1.16,0,0,1,.08-.42,2.42,2.42,0,0,1,.21-.43,3.28,3.28,0,0,1,.21-.33c.06-.09.11-.13.15-.13a.11.11,0,0,1,.11.09,7.14,7.14,0,0,1,.09.74l.06.8.21,4.61a2.1,2.1,0,0,0,.38,1.24,1.13,1.13,0,0,0,.92.41Z"/><path d="M111,122a2.26,2.26,0,0,1-.73-.1,1.71,1.71,0,0,1-.59-.35,3.27,3.27,0,0,1-.53-.64,11.16,11.16,0,0,1-.55-1h0a2.88,2.88,0,0,1-.48,1.31,2.64,2.64,0,0,1-.89.56,3,3,0,0,1-1.18.2l-.19,0a.66.66,0,0,1-.19-.09.7.7,0,0,1-.14-.16.34.34,0,0,1-.06-.2v-.37a.28.28,0,0,1,.06-.18.5.5,0,0,1,.16-.11.57.57,0,0,1,.22-.07,1,1,0,0,1,.24,0,3,3,0,0,0,1.22-.23,1.69,1.69,0,0,0,.74-.6c-.11-.93-1.19-2-3.24-3.22a.72.72,0,0,1-.2-.18.54.54,0,0,1,0-.27,1.73,1.73,0,0,1,0-.3,2.49,2.49,0,0,1,.08-.35,2.29,2.29,0,0,1,.12-.37,3,3,0,0,1,.16-.36.78.78,0,0,1,.26-.26,4.87,4.87,0,0,1,.53-.35l.73-.4.86-.43.93-.43.93-.43.87-.38.73-.32a.09.09,0,0,1,.1,0,.13.13,0,0,1,0,.09.74.74,0,0,1,0,.19c0,.08,0,.18-.1.32a3.09,3.09,0,0,1-.2.46.56.56,0,0,1-.19.21c-.85.37-1.69.75-2.54,1.14s-1.69.8-2.51,1.23l1.16.79c.36.25.71.52,1,.8a8.7,8.7,0,0,1,.92.9,6.6,6.6,0,0,1,.8,1l.48.73a5.16,5.16,0,0,0,.43.53,1.51,1.51,0,0,0,.42.32,1,1,0,0,0,.48.12Zm-.61-11.59s.06,0,.06.08a1,1,0,0,1,0,.19,2.58,2.58,0,0,1-.08.26c0,.1-.07.18-.11.26a.35.35,0,0,1-.12.14l-2.29,1a19.57,19.57,0,0,0-2.24,1.22l-.07,0-.07,0s-.05,0-.05-.07a.89.89,0,0,1,0-.19c0-.09,0-.18.09-.28s.08-.19.12-.27a.51.51,0,0,1,.14-.17c.37-.23.73-.44,1.1-.64l1.1-.56c.37-.17.75-.35,1.13-.51l1.17-.52Z"/><path d="M118.09,119a.69.69,0,0,1,0-.22,1.08,1.08,0,0,1,.18-.36l.17-.28q.08-.09.12-.09s.07,0,.1.09.06.18.09.29.07.24.1.37,0,.27.07.41a3.22,3.22,0,0,1,0,.43,3.79,3.79,0,0,1-.08.73,3.44,3.44,0,0,1-.22.73,2,2,0,0,1-.35.55.61.61,0,0,1-.46.22,1.2,1.2,0,0,1-.46-.1,2.69,2.69,0,0,1-.48-.24,2.78,2.78,0,0,1-.43-.31,2.11,2.11,0,0,1-.3-.31,1.71,1.71,0,0,1-.42.47,2.43,2.43,0,0,1-.56.33,3.26,3.26,0,0,1-.63.18,3.34,3.34,0,0,1-.62.06,1,1,0,0,1-.37-.06.57.57,0,0,1-.24-.14.39.39,0,0,1-.12-.19.83.83,0,0,1,0-.22h0a1.32,1.32,0,0,1-.37.32,2.35,2.35,0,0,1-.53.23,3.22,3.22,0,0,1-.63.15,4.91,4.91,0,0,1-.67.05l-.19,0a.61.61,0,0,1-.18-.09.75.75,0,0,1-.15-.16.34.34,0,0,1-.06-.2v-.37a.28.28,0,0,1,.06-.18.71.71,0,0,1,.17-.11.52.52,0,0,1,.22-.07,1,1,0,0,1,.24,0,3.19,3.19,0,0,0,1.37-.27,2.13,2.13,0,0,0,.87-.7,4,4,0,0,0,.26-.46c.07-.16.14-.33.2-.5a.11.11,0,0,1,.07-.08.46.46,0,0,1,.2,0,.56.56,0,0,1,.21,0c.06,0,.09,0,.09.1a1.37,1.37,0,0,1-.07.34c0,.14-.09.29-.15.43s-.1.28-.15.4a1.14,1.14,0,0,0-.06.25c0,.21.15.31.46.31a2.08,2.08,0,0,0,.83-.16,1.27,1.27,0,0,0,.61-.48,1.11,1.11,0,0,0,.17-.29,3,3,0,0,0,.14-.36c0-.12.09-.25.13-.38s.07-.24.09-.35a.16.16,0,0,1,.07-.09.45.45,0,0,1,.24,0,.43.43,0,0,1,.2,0,.09.09,0,0,1,.05.09,1,1,0,0,1,0,.23c0,.1,0,.19-.06.29s0,.2-.07.3a1.2,1.2,0,0,1-.07.26,1,1,0,0,0,.22.36,2,2,0,0,0,.35.3,2.14,2.14,0,0,0,.4.2.83.83,0,0,0,.35.08.3.3,0,0,0,.26-.15.91.91,0,0,0,.09-.46,1.6,1.6,0,0,0,0-.39,2,2,0,0,0-.1-.32,1,1,0,0,0-.1-.23A.4.4,0,0,1,118.09,119Zm-3.58-2.75a1,1,0,0,1,.2-.25.32.32,0,0,1,.22-.1.45.45,0,0,1,.18.05,1.23,1.23,0,0,1,.25.17,1.82,1.82,0,0,1,.24.25.5.5,0,0,1,.08.26.54.54,0,0,1,0,.19,1.51,1.51,0,0,1-.13.25,2.3,2.3,0,0,1-.22.27.31.31,0,0,1-.22.11.68.68,0,0,1-.17,0,.86.86,0,0,1-.25-.19,1.07,1.07,0,0,1-.23-.25.49.49,0,0,1-.08-.25.51.51,0,0,1,0-.2A.82.82,0,0,1,114.51,116.2Zm.55-1.65a.94.94,0,0,1,.2-.26.32.32,0,0,1,.23-.1.41.41,0,0,1,.17,0,1.23,1.23,0,0,1,.25.17.7.7,0,0,1,.32.51.81.81,0,0,1,0,.19.84.84,0,0,1-.14.26,1.59,1.59,0,0,1-.21.27.33.33,0,0,1-.22.09l-.17,0a.92.92,0,0,1-.25-.18,1,1,0,0,1-.23-.25.44.44,0,0,1-.08-.26.81.81,0,0,1,0-.2A1.34,1.34,0,0,1,115.06,114.55Zm.9,1.55a1,1,0,0,1,.2-.25.32.32,0,0,1,.23-.1l.17,0a1.22,1.22,0,0,1,.25.18,1.11,1.11,0,0,1,.24.25.46.46,0,0,1,.08.25.94.94,0,0,1-.18.45,1.05,1.05,0,0,1-.21.27.3.3,0,0,1-.22.1l-.17,0a1.55,1.55,0,0,1-.26-.18,1,1,0,0,1-.22-.25.48.48,0,0,1-.09-.26.72.72,0,0,1,0-.19A1.17,1.17,0,0,1,116,116.1Z"/><path d="M123.4,120.61a1.54,1.54,0,0,1-.36.36,1.09,1.09,0,0,1-.63.17,1.4,1.4,0,0,1-.58-.12,1.29,1.29,0,0,1-.47-.33,1.51,1.51,0,0,1-.33-.49,1.69,1.69,0,0,1-.12-.64,3.27,3.27,0,0,1,.15-1,4,4,0,0,1,.39-.83,2.12,2.12,0,0,1,.54-.57,1,1,0,0,1,.59-.22,1,1,0,0,1,.7.29,2.39,2.39,0,0,1,.52.73,4.79,4.79,0,0,1,.33,1,5.64,5.64,0,0,1,.12,1.16,6.71,6.71,0,0,1-.11,1.17,7.19,7.19,0,0,1-.3,1.15,6.57,6.57,0,0,1-.47,1,4.61,4.61,0,0,1-.63.84,2.91,2.91,0,0,1-.76.57,1.89,1.89,0,0,1-.87.21,3.93,3.93,0,0,1-2-.58l-.14-.1a.41.41,0,0,1-.09-.1.5.5,0,0,1,0-.13.82.82,0,0,1,0-.18.63.63,0,0,1,0-.23.11.11,0,0,1,.11-.06.39.39,0,0,1,.17.07l.28.16.38.15a1.31,1.31,0,0,0,.44.07,2.27,2.27,0,0,0,.72-.12,2.83,2.83,0,0,0,.7-.34,3.41,3.41,0,0,0,.64-.51,4.87,4.87,0,0,0,.55-.64,5.2,5.2,0,0,0,.42-.72,3.26,3.26,0,0,0,.24-.77c0-.18,0-.34,0-.49Zm-.08-.93a2.45,2.45,0,0,0-.37-1,1.27,1.27,0,0,0-.3-.31.59.59,0,0,0-.32-.11.58.58,0,0,0-.35.1.84.84,0,0,0-.23.23,1.75,1.75,0,0,0-.13.28,1.73,1.73,0,0,0-.05.24.72.72,0,0,0,.08.32,1.13,1.13,0,0,0,.22.27,1.25,1.25,0,0,0,.34.19,1.27,1.27,0,0,0,.44.08l.15,0,.19,0,.18-.08A.56.56,0,0,0,123.32,119.68Z"/><path d="M129.69,122a3.49,3.49,0,0,1-.61-.05.59.59,0,0,1-.38-.23l-.07,0a6,6,0,0,1-.16.91,5.66,5.66,0,0,1-.32.9,4.44,4.44,0,0,1-.45.83,3.88,3.88,0,0,1-.57.69,2.6,2.6,0,0,1-.69.46,1.71,1.71,0,0,1-.77.18,3.05,3.05,0,0,1-.87-.15,4.22,4.22,0,0,1-1-.47l-.13-.09a.28.28,0,0,1-.09-.1.5.5,0,0,1,0-.13.92.92,0,0,1,0-.18q0-.3.12-.3a.53.53,0,0,1,.18.07l.28.16.37.15a1.42,1.42,0,0,0,.42.07,2.15,2.15,0,0,0,.77-.15,4,4,0,0,0,.73-.39,4.28,4.28,0,0,0,.65-.56,5.13,5.13,0,0,0,.53-.64,4,4,0,0,0,.37-.65,2,2,0,0,0,.18-.58,1.16,1.16,0,0,0-.18-.35l-.31-.47c-.1-.15-.2-.3-.28-.45l-.26-.46a.88.88,0,0,1-.08-.33,1.39,1.39,0,0,1,0-.32,2.17,2.17,0,0,1,.12-.36,1.13,1.13,0,0,1,.15-.29c.05-.09.1-.13.13-.13a.12.12,0,0,1,.12.09,1.14,1.14,0,0,1,.09.19,5.63,5.63,0,0,0,.57,1.11,1.74,1.74,0,0,0,.66.57,2.08,2.08,0,0,0,.91.18Z"/><path d="M129.69,122l-.19,0a.61.61,0,0,1-.18-.09.75.75,0,0,1-.15-.16.34.34,0,0,1-.06-.2v-.37a.28.28,0,0,1,.06-.18.71.71,0,0,1,.17-.11.52.52,0,0,1,.22-.07,1,1,0,0,1,.24,0c.33,0,.66,0,1,0s.63-.07.93-.12a6.33,6.33,0,0,0,.83-.19,3.68,3.68,0,0,0,.69-.26.45.45,0,0,0,0-.13.76.76,0,0,0,0-.15,1.82,1.82,0,0,0,0-.32,1,1,0,0,0-.08-.3h-.08a1,1,0,0,1-.32.38,1,1,0,0,1-.59.17,2.23,2.23,0,0,1-.56-.08,1.39,1.39,0,0,1-.52-.25,1.3,1.3,0,0,1-.39-.47,1.54,1.54,0,0,1-.15-.72,2.93,2.93,0,0,1,.16-1,3,3,0,0,1,.4-.84,2.35,2.35,0,0,1,.57-.6,1,1,0,0,1,.62-.23,1,1,0,0,1,.69.27,2.54,2.54,0,0,1,.55.72,4.22,4.22,0,0,1,.36,1,4.71,4.71,0,0,1,.14,1.12,7,7,0,0,1-.08.92,6.33,6.33,0,0,1-.25,1.09,2.1,2.1,0,0,1-.15.3.45.45,0,0,1-.18.2,6.71,6.71,0,0,1-1.69.56A11.15,11.15,0,0,1,129.69,122Zm1.44-8.78a1.2,1.2,0,0,1,.24-.29.38.38,0,0,1,.25-.11.54.54,0,0,1,.19,0,1,1,0,0,1,.29.2,1.39,1.39,0,0,1,.27.28.52.52,0,0,1,.09.29.59.59,0,0,1,0,.21,2.31,2.31,0,0,1-.16.3,1.48,1.48,0,0,1-.23.3.42.42,0,0,1-.26.11.54.54,0,0,1-.19,0,1.38,1.38,0,0,1-.29-.2,1.36,1.36,0,0,1-.26-.29.55.55,0,0,1-.09-.29.64.64,0,0,1,0-.22A1.66,1.66,0,0,1,131.13,113.26ZM133,118.4a2.33,2.33,0,0,0-.12-.49,1.92,1.92,0,0,0-.21-.46,1.26,1.26,0,0,0-.3-.34.55.55,0,0,0-.67,0,.92.92,0,0,0-.26.22,1.41,1.41,0,0,0-.18.29.87.87,0,0,0-.07.31.68.68,0,0,0,.13.32,1.35,1.35,0,0,0,.28.25,1.4,1.4,0,0,0,.37.17,2,2,0,0,0,.43,0,.74.74,0,0,0,.32-.07A1,1,0,0,0,133,118.4Z"/><path d="M145.32,122a2.42,2.42,0,0,1-.47,0,1,1,0,0,1-.42-.16c0,.11,0,.23,0,.36l0,.38a4,4,0,0,1-.18.9,2.86,2.86,0,0,1-.35.7,3.4,3.4,0,0,1-1.28,1,4.1,4.1,0,0,1-1.88.4,3.09,3.09,0,0,1-1.21-.21,2.28,2.28,0,0,1-.82-.59,2.33,2.33,0,0,1-.46-.85,3.53,3.53,0,0,1-.14-1,4.91,4.91,0,0,1,.16-1.27,8,8,0,0,1,.42-1.19s.05-.1.08-.14a.2.2,0,0,1,.08-.08l.1-.05h.16l.2,0a.11.11,0,0,1,.06.11,1.09,1.09,0,0,1-.07.25c-.05.12-.1.26-.16.43a4.22,4.22,0,0,0-.15.59,3.2,3.2,0,0,0-.07.7,2.39,2.39,0,0,0,.15.88,1.66,1.66,0,0,0,1.07,1,2.55,2.55,0,0,0,.84.13,3.58,3.58,0,0,0,.77-.09,3.8,3.8,0,0,0,.8-.28,3.13,3.13,0,0,0,.71-.47,2,2,0,0,0,.51-.65c0-.08,0-.15,0-.23v-.24a5.37,5.37,0,0,0-.19-1.29,5,5,0,0,0-.52-1.26.67.67,0,0,1-.08-.29.91.91,0,0,1,.05-.31,2.37,2.37,0,0,1,.13-.32,1.35,1.35,0,0,1,.17-.25c.05-.07.1-.11.14-.11a.14.14,0,0,1,.12.08.78.78,0,0,1,.12.19,6.82,6.82,0,0,1,.34.82,6.33,6.33,0,0,0,.29.72.66.66,0,0,0,.39.36,2.26,2.26,0,0,0,.7.1Zm-4.69-5.19a1.2,1.2,0,0,1,.24-.29.38.38,0,0,1,.25-.11.38.38,0,0,1,.19,0,1,1,0,0,1,.29.2,2.3,2.3,0,0,1,.27.28.52.52,0,0,1,.09.29.59.59,0,0,1,0,.21,2.31,2.31,0,0,1-.16.3,2,2,0,0,1-.23.3.42.42,0,0,1-.26.11.54.54,0,0,1-.19,0,1.92,1.92,0,0,1-.29-.2,1.36,1.36,0,0,1-.26-.29.55.55,0,0,1-.09-.29.64.64,0,0,1,0-.22A1.39,1.39,0,0,1,140.63,116.85Z"/><path d="M144,125.33a1.48,1.48,0,0,1,.21-.26.3.3,0,0,1,.22-.1.41.41,0,0,1,.17,0,1.58,1.58,0,0,1,.26.17.72.72,0,0,1,.31.52.5.5,0,0,1,0,.19,1.09,1.09,0,0,1-.13.27,2.33,2.33,0,0,1-.21.27.32.32,0,0,1-.23.1.45.45,0,0,1-.17,0,.74.74,0,0,1-.25-.18,1.38,1.38,0,0,1-.23-.26.56.56,0,0,1-.08-.26,1,1,0,0,1,0-.21A2.08,2.08,0,0,1,144,125.33Zm1.3-3.29-.19,0a.66.66,0,0,1-.19-.09.7.7,0,0,1-.14-.16.34.34,0,0,1-.06-.2v-.37a.28.28,0,0,1,.06-.18.5.5,0,0,1,.16-.11.57.57,0,0,1,.22-.07,1,1,0,0,1,.24,0,3.64,3.64,0,0,0,.57,0,4.85,4.85,0,0,0,.55-.09c.17-.05.34-.1.49-.16a2,2,0,0,0,.41-.21,4.51,4.51,0,0,0-.19-.88,4.56,4.56,0,0,0-.45-1,.8.8,0,0,1-.09-.14.38.38,0,0,1,0-.16.88.88,0,0,1,.06-.29,1.83,1.83,0,0,1,.14-.32,1.05,1.05,0,0,1,.16-.26c.06-.08.11-.11.15-.11a.12.12,0,0,1,.09,0,.7.7,0,0,1,.14.19c.08.13.16.29.25.47s.16.39.23.6a7,7,0,0,1,.16.69,3.59,3.59,0,0,1,0,1.36c0,.22-.1.41-.16.6a1,1,0,0,1-.11.23.64.64,0,0,1-.19.16,4.08,4.08,0,0,1-1,.4A4.85,4.85,0,0,1,145.32,122Zm.16,3.18a1.34,1.34,0,0,1,.19-.26.37.37,0,0,1,.23-.1.45.45,0,0,1,.17,0,.86.86,0,0,1,.26.17.72.72,0,0,1,.31.52.58.58,0,0,1,0,.2,1.25,1.25,0,0,1-.13.26.89.89,0,0,1-.22.27.29.29,0,0,1-.21.1.41.41,0,0,1-.17-.05.68.68,0,0,1-.26-.18,1.74,1.74,0,0,1-.23-.25.52.52,0,0,1-.08-.26.81.81,0,0,1,0-.2A2,2,0,0,1,145.48,125.22Z"/><path d="M153.14,122a3.49,3.49,0,0,1-.61-.05.64.64,0,0,1-.39-.23l-.06,0a6.17,6.17,0,0,1-.15.84,5.88,5.88,0,0,1-.27.84,6.35,6.35,0,0,1-.4.78,4.11,4.11,0,0,1-.51.63,2.38,2.38,0,0,1-.6.43,1.48,1.48,0,0,1-.68.16,3.53,3.53,0,0,1-.87-.14,4.16,4.16,0,0,1-1-.47l-.14-.1a.32.32,0,0,1-.08-.09.5.5,0,0,1-.05-.13.92.92,0,0,1,0-.18c0-.2,0-.3.13-.3a.59.59,0,0,1,.17.07l.29.15a3,3,0,0,0,.36.16,1.54,1.54,0,0,0,.42.07,1.89,1.89,0,0,0,.69-.14A2.75,2.75,0,0,0,150,124a3.35,3.35,0,0,0,.57-.5,3.94,3.94,0,0,0,.81-1.17,1.59,1.59,0,0,0,.15-.53,1.34,1.34,0,0,0-.17-.35l-.31-.47a3.68,3.68,0,0,1-.28-.45l-.26-.46a.72.72,0,0,1-.08-.33,1,1,0,0,1,.05-.32c0-.13.07-.24.11-.36a2.57,2.57,0,0,1,.15-.29c.06-.09.1-.13.14-.13a.14.14,0,0,1,.12.09,1.14,1.14,0,0,1,.09.19,5.63,5.63,0,0,0,.57,1.11,2.06,2.06,0,0,0,.31.34,1.21,1.21,0,0,0,.35.24,1.64,1.64,0,0,0,.41.13,3.62,3.62,0,0,0,.5,0Z"/><path d="M153.14,122l-.19,0a.66.66,0,0,1-.19-.09,1.07,1.07,0,0,1-.14-.16.34.34,0,0,1-.06-.2v-.37a.28.28,0,0,1,.06-.18.64.64,0,0,1,.16-.11.57.57,0,0,1,.22-.07,1.1,1.1,0,0,1,.25,0,3.6,3.6,0,0,0,.56,0,4.85,4.85,0,0,0,.55-.09l.5-.16a2.25,2.25,0,0,0,.41-.21,6.68,6.68,0,0,0-.19-.88,5.17,5.17,0,0,0-.46-1,.7.7,0,0,1-.08-.14.38.38,0,0,1,0-.16.84.84,0,0,1,.05-.29,1.83,1.83,0,0,1,.14-.32,1.48,1.48,0,0,1,.16-.26c.06-.08.11-.11.15-.11a.14.14,0,0,1,.1,0,1.13,1.13,0,0,1,.13.19,4,4,0,0,1,.25.47c.08.19.16.39.23.6a7,7,0,0,1,.17.69,4.37,4.37,0,0,1,.06.72,3.55,3.55,0,0,1-.06.64,3.51,3.51,0,0,1-.16.6,1,1,0,0,1-.1.23,1.06,1.06,0,0,1-.19.16,4.34,4.34,0,0,1-1,.4A4.85,4.85,0,0,1,153.14,122Zm.16-7.57a1.38,1.38,0,0,1,.21-.25.31.31,0,0,1,.22-.11.49.49,0,0,1,.18,0,1.57,1.57,0,0,1,.25.18.7.7,0,0,1,.31.51.54.54,0,0,1,0,.2,1,1,0,0,1-.13.26,1.59,1.59,0,0,1-.21.27.31.31,0,0,1-.22.11.74.74,0,0,1-.18,0,1.63,1.63,0,0,1-.47-.44.48.48,0,0,1-.09-.26.78.78,0,0,1,0-.21C153.2,114.67,153.24,114.58,153.3,114.47Zm1.46-.1a.78.78,0,0,1,.2-.26.3.3,0,0,1,.22-.1.38.38,0,0,1,.17,0,1.23,1.23,0,0,1,.26.18.73.73,0,0,1,.32.52.93.93,0,0,1,0,.19,1.17,1.17,0,0,1-.14.27,1.59,1.59,0,0,1-.21.27.35.35,0,0,1-.22.09.38.38,0,0,1-.17,0,1,1,0,0,1-.26-.18,1.79,1.79,0,0,1-.23-.26.52.52,0,0,1-.08-.25.51.51,0,0,1,0-.2A1.17,1.17,0,0,1,154.76,114.37Z"/><path d="M169.08,121.92a1.78,1.78,0,0,0-.12.24,2.39,2.39,0,0,0-.13.28l-.12.3c0,.1-.07.19-.1.28a.3.3,0,0,1-.12.16.36.36,0,0,1-.21,0,.34.34,0,0,1-.18,0,.13.13,0,0,1,0-.11,1.13,1.13,0,0,1,0-.24c0-.11.07-.22.11-.35l.15-.39c.06-.12.1-.24.15-.33a.58.58,0,0,1-.26-.13,1.7,1.7,0,0,1-.24-.23l-.21-.31-.17-.34c0-.12-.11-.23-.16-.34a2,2,0,0,0-.17-.29.79.79,0,0,0-.25-.19.71.71,0,0,0-.34-.07,2.41,2.41,0,0,0-.85.15,3.81,3.81,0,0,0-.7.35,2.57,2.57,0,0,0-.48.42.68.68,0,0,0-.17.35.48.48,0,0,0,.34.44,4.39,4.39,0,0,0,1.06.3l.55.15a1.77,1.77,0,0,1,.39.19.65.65,0,0,1,.22.3,1.17,1.17,0,0,1,.08.45,1.2,1.2,0,0,1,0,.31c0,.11-.05.22-.08.33a3.42,3.42,0,0,1-.13.34,3.24,3.24,0,0,1-.13.31,5.68,5.68,0,0,1-.81.73,6.07,6.07,0,0,1-1,.59,5.91,5.91,0,0,1-1.06.4,4.57,4.57,0,0,1-1.08.14,3.07,3.07,0,0,1-1.37-.27,2.43,2.43,0,0,1-.87-.7,2.63,2.63,0,0,1-.46-1,4.82,4.82,0,0,1-.07-1.87c0-.26.09-.5.15-.74a6.37,6.37,0,0,1,.21-.66c.08-.21.15-.41.23-.58a.59.59,0,0,1,.15-.22.44.44,0,0,1,.27-.07c.17,0,.26,0,.26.15a1.24,1.24,0,0,1-.08.27c0,.13-.11.3-.17.5s-.12.43-.17.68a3.58,3.58,0,0,0,.08,1.81,2,2,0,0,0,.47.76,1.92,1.92,0,0,0,.74.45,3,3,0,0,0,1,.15,3.79,3.79,0,0,0,.81-.11,7.08,7.08,0,0,0,.91-.32,6.9,6.9,0,0,0,.89-.48,3.53,3.53,0,0,0,.71-.59.21.21,0,0,0-.05-.12.48.48,0,0,0-.19-.11,2.66,2.66,0,0,0-.36-.11c-.15,0-.34-.07-.56-.11l-.56-.11a1.76,1.76,0,0,1-.47-.18.8.8,0,0,1-.33-.3.85.85,0,0,1-.12-.48A2.19,2.19,0,0,1,164,121a3.61,3.61,0,0,1,.36-.74,4.07,4.07,0,0,1,.53-.65,4,4,0,0,1,.64-.54,3.57,3.57,0,0,1,.7-.36,2.1,2.1,0,0,1,.68-.13,1.13,1.13,0,0,1,.51.11,1.41,1.41,0,0,1,.37.27,1.9,1.9,0,0,1,.26.37c.07.14.14.27.2.4a2.1,2.1,0,0,0,.15.3,2.56,2.56,0,0,0,.2.26,1.16,1.16,0,0,0,.24.2,1,1,0,0,0,.28.11l.57-.67c.21-.24.44-.48.68-.73s.48-.47.74-.7a8.19,8.19,0,0,1,.8-.59,5.22,5.22,0,0,1,.81-.42,2.43,2.43,0,0,1,.81-.16,1.47,1.47,0,0,1,.66.17,2.44,2.44,0,0,1,.59.42,2.23,2.23,0,0,1,.42.55,1.18,1.18,0,0,1,.16.57,2.53,2.53,0,0,1-.06.56,3.37,3.37,0,0,1-.15.48,3.44,3.44,0,0,1-.39.66l0,0h1.41l-.11,1.23h-.71c-.25,0-.5,0-.76,0a4.72,4.72,0,0,1-.65-.1,2.44,2.44,0,0,1-.53-.21,8.77,8.77,0,0,1-1.36.3,12.26,12.26,0,0,1-1.36.08q-.48,0-.87,0A5.79,5.79,0,0,1,169.08,121.92Zm.75-1.16a2.82,2.82,0,0,0,.43,0,5.43,5.43,0,0,0,.57,0l.59,0c.31,0,.61,0,.92-.09s.59-.1.87-.17a6.62,6.62,0,0,0,.75-.24,2.43,2.43,0,0,0,.58-.31c0-.06,0-.15,0-.26a1.26,1.26,0,0,0-.19-.47,1.66,1.66,0,0,0-.81-.67,1.32,1.32,0,0,0-.51-.1,1.53,1.53,0,0,0-.66.17,4.23,4.23,0,0,0-.82.48,8.69,8.69,0,0,0-.87.72A9,9,0,0,0,169.83,120.76Z"/><path d="M179.56,121.86a5.19,5.19,0,0,0-.31.66l-.3.78a.38.38,0,0,1-.11.17.57.57,0,0,1-.22,0c-.15,0-.22-.05-.22-.14a1.13,1.13,0,0,1,0-.3l.14-.47c.06-.17.12-.34.19-.51a4,4,0,0,1,.18-.44,2,2,0,0,1-.52-.28A2.52,2.52,0,0,1,178,121a2.36,2.36,0,0,1-.36.42,3,3,0,0,1-.45.34,2,2,0,0,1-.52.23,1.9,1.9,0,0,1-.58.09l-.19,0a.61.61,0,0,1-.18-.09.75.75,0,0,1-.15-.16.34.34,0,0,1-.06-.2v-.37a.29.29,0,0,1,.07-.18.5.5,0,0,1,.16-.11.48.48,0,0,1,.21-.07,1,1,0,0,1,.24,0,1.74,1.74,0,0,0,.53-.08,1.88,1.88,0,0,0,.79-.48,2.86,2.86,0,0,0,.29-.33,2.41,2.41,0,0,0,.3-.48l.22-.45a.29.29,0,0,1,.12-.17.39.39,0,0,1,.22,0c.15,0,.23,0,.23.14s0,.09,0,.17,0,.17,0,.25l-.06.27a1,1,0,0,1,0,.22,1.19,1.19,0,0,0,.32.41,2.17,2.17,0,0,0,.53.28c.16-.22.35-.45.56-.69s.43-.48.67-.72a9.72,9.72,0,0,1,.76-.68,6.34,6.34,0,0,1,.81-.58,4.21,4.21,0,0,1,.83-.4,2.42,2.42,0,0,1,.82-.15,1.55,1.55,0,0,1,.67.17,2.26,2.26,0,0,1,.59.42,2.22,2.22,0,0,1,.43.55,1.19,1.19,0,0,1,.17.56,2.14,2.14,0,0,1-.06.5,2.81,2.81,0,0,1-.16.49,3.09,3.09,0,0,1-.24.44,1.84,1.84,0,0,1-.33.35l0,0h1.61l-.1,1.23h-.75a5.12,5.12,0,0,1-.69,0,4.49,4.49,0,0,1-.74-.11,1.28,1.28,0,0,1-.51-.29,6.11,6.11,0,0,1-1.34.32,11.4,11.4,0,0,1-1.42.09c-.31,0-.6,0-.86,0S179.79,121.91,179.56,121.86Zm.68-1.16.22,0,.23,0a5.24,5.24,0,0,0,.57,0l.61,0c.31,0,.63,0,.93-.09a7.62,7.62,0,0,0,.88-.17,6.8,6.8,0,0,0,.76-.24,3,3,0,0,0,.59-.3.76.76,0,0,0,0-.15s0-.1,0-.15a1.46,1.46,0,0,0-.21-.46,1.85,1.85,0,0,0-.36-.38,1.5,1.5,0,0,0-.45-.27,1.32,1.32,0,0,0-.51-.1,1.68,1.68,0,0,0-.68.17,4.71,4.71,0,0,0-.82.47,9.24,9.24,0,0,0-.89.73A8.3,8.3,0,0,0,180.24,120.7Z"/><path d="M194.5,118.65a1.25,1.25,0,0,1,0,.18,2.53,2.53,0,0,1-.11.33c-.08.19-.15.33-.2.43s-.12.15-.17.15a1.35,1.35,0,0,1-.33,0l-.34,0-.25,0-.29.07a.67.67,0,0,0,.22.52,1.55,1.55,0,0,0,.57.32,3.8,3.8,0,0,0,.83.17c.31,0,.63,0,1,0l-.1,1.23-.82,0a6.32,6.32,0,0,1-.76-.11,3.71,3.71,0,0,1-.53-.14,1.33,1.33,0,0,1-.43-.21,1.18,1.18,0,0,1-.3-.29,1.08,1.08,0,0,1-.17-.41,1.91,1.91,0,0,1,0-.42,4.66,4.66,0,0,1,.06-.47h0a5.59,5.59,0,0,0-.86.4l-.85.48c-.26.16-.53.3-.81.45a6.91,6.91,0,0,1-.87.38,7.36,7.36,0,0,1-1,.27,6.51,6.51,0,0,1-1.23.1l-.19,0a.66.66,0,0,1-.19-.09.7.7,0,0,1-.14-.16.34.34,0,0,1-.06-.2v-.37a.28.28,0,0,1,.06-.18.5.5,0,0,1,.16-.11.57.57,0,0,1,.22-.07,1,1,0,0,1,.24,0,7.54,7.54,0,0,0,1.59-.15,8.36,8.36,0,0,0,1.25-.37c.37-.16.73-.32,1.06-.5s.67-.34,1-.49v0c-.27-.07-.53-.16-.8-.25l-.76-.24a7.33,7.33,0,0,0-.74-.19,3.23,3.23,0,0,0-.68-.08,1.3,1.3,0,0,0-.49.07,1.4,1.4,0,0,0-.3.14l-.19.13a.24.24,0,0,1-.15.06s-.06,0-.07,0a.47.47,0,0,1,0-.16.92.92,0,0,1,0-.19.21.21,0,0,1,0-.11,2.14,2.14,0,0,1,.62-.84,1.29,1.29,0,0,1,.8-.25,3.27,3.27,0,0,1,.54,0c.17,0,.36.06.54.11l.59.18.65.22.85.3c.27.08.53.16.79.22a6.54,6.54,0,0,0,.75.13,6.84,6.84,0,0,0,.79,0C194.46,118.56,194.5,118.59,194.5,118.65ZM190.07,115a1.48,1.48,0,0,1,.24-.29.34.34,0,0,1,.25-.11.45.45,0,0,1,.2.05,1.15,1.15,0,0,1,.28.2,1.17,1.17,0,0,1,.27.28.53.53,0,0,1,.1.29.63.63,0,0,1,0,.21,1.5,1.5,0,0,1-.16.3,1.48,1.48,0,0,1-.23.3.4.4,0,0,1-.26.11.49.49,0,0,1-.18,0,1.54,1.54,0,0,1-.3-.2,1.7,1.7,0,0,1-.26-.29.57.57,0,0,1-.09-.29,1,1,0,0,1,0-.22A1.39,1.39,0,0,1,190.07,115Z"/><path d="M195.25,122l-.19,0a.66.66,0,0,1-.19-.09.7.7,0,0,1-.14-.16.34.34,0,0,1-.06-.2v-.37a.28.28,0,0,1,.06-.18.64.64,0,0,1,.16-.11.57.57,0,0,1,.22-.07,1,1,0,0,1,.24,0,3.64,3.64,0,0,0,.57,0,4.85,4.85,0,0,0,.55-.09,4.7,4.7,0,0,0,.49-.16,2,2,0,0,0,.41-.21,5.3,5.3,0,0,0-.18-.88,5.17,5.17,0,0,0-.46-1,.8.8,0,0,1-.09-.14.38.38,0,0,1,0-.16.88.88,0,0,1,.06-.29,1.83,1.83,0,0,1,.14-.32,1.05,1.05,0,0,1,.16-.26c.06-.08.11-.11.15-.11a.12.12,0,0,1,.09,0,.7.7,0,0,1,.14.19c.08.13.16.29.25.47s.16.39.23.6a7,7,0,0,1,.16.69,3.59,3.59,0,0,1,0,1.36,4.75,4.75,0,0,1-.16.6.7.7,0,0,1-.11.23.64.64,0,0,1-.19.16,4.08,4.08,0,0,1-1,.4A4.85,4.85,0,0,1,195.25,122Zm.16-7.57a1.38,1.38,0,0,1,.21-.25.31.31,0,0,1,.22-.11.41.41,0,0,1,.17,0,1,1,0,0,1,.25.18.69.69,0,0,1,.32.51.54.54,0,0,1,0,.2,1,1,0,0,1-.13.26l-.21.27a.33.33,0,0,1-.23.11l-.17,0a1,1,0,0,1-.25-.19,1.34,1.34,0,0,1-.23-.25.56.56,0,0,1-.08-.26.52.52,0,0,1,0-.21C195.31,114.67,195.35,114.58,195.41,114.47Zm1.46-.1a.92.92,0,0,1,.19-.26.32.32,0,0,1,.23-.1.41.41,0,0,1,.17,0,1.23,1.23,0,0,1,.26.18.72.72,0,0,1,.31.52.54.54,0,0,1,0,.19,1.09,1.09,0,0,1-.13.27,1.6,1.6,0,0,1-.22.27.32.32,0,0,1-.21.09.45.45,0,0,1-.18,0,1.22,1.22,0,0,1-.25-.18,1.79,1.79,0,0,1-.23-.26.52.52,0,0,1-.08-.25.75.75,0,0,1,0-.2A1.29,1.29,0,0,1,196.87,114.37Z"/><path d="M35.43,80.44q0,5.85-5.11,5.85H17.58q-3.24,0-3.24,3.85V109.9H7.91V86.25q0-7.77,6.37-7.77h1.49V62.9H30.32q5.11,0,5.11,5.88Zm-6.57-3.88v-4c0-1.26-.56-1.89-1.67-1.89H22.37v7.77h4.82C28.3,78.48,28.86,77.84,28.86,76.56Z"/><path d="M64.08,86.29H60.26v8.64q0,7.77-6.16,7.78H40.6V94.93H51.51c1.49,0,2.23-.9,2.23-2.72V86.29H45.69q-5.09,0-5.09-5.81V68.78q0-5.84,5.11-5.84h9.44c3.4,0,5.11,2,5.11,5.84v9.7h3.82ZM53.74,76.52V72.6c0-1.26-.56-1.89-1.69-1.89h-3.3c-1.15,0-1.72.63-1.72,1.89v3.92c0,1.31.57,2,1.72,2h3.3C53.18,78.48,53.74,77.83,53.74,76.52Z"/><path d="M76,78.41q0,7.88-6.51,7.88H62.33V78.48H65.6a7,7,0,0,0,2.87-.29c.78-.43,1.16-1.52,1.16-3.27V63H76Zm-3.53,16a4.38,4.38,0,0,1-.94,2.82,2.74,2.74,0,0,1-4.5,0,4.43,4.43,0,0,1-.93-2.82,4.38,4.38,0,0,1,.93-2.81,2.74,2.74,0,0,1,4.5,0A4.33,4.33,0,0,1,72.5,94.46Zm7.3,0a4.33,4.33,0,0,1-.94,2.83,2.81,2.81,0,0,1-2.27,1.17,2.78,2.78,0,0,1-2.24-1.18,4.48,4.48,0,0,1-.92-2.82,4.43,4.43,0,0,1,.92-2.81,2.76,2.76,0,0,1,2.24-1.18,2.8,2.8,0,0,1,2.27,1.16A4.33,4.33,0,0,1,79.8,94.46Z"/><path d="M96,94.9a9.56,9.56,0,0,1-1.52,5.63,5.16,5.16,0,0,1-4.38,2.18h-9V94.46h5.55q2.86,0,2.87-4.25V62.94H96Z"/><path d="M112.57,86.29h-5q-6.44,0-6.43-7.74V45h6.43V75q0,3.53,3.24,3.52h1.72Z"/><path d="M128.46,86.29H110.88V78.48h7.27V63h6.4V78.48h3.91ZM124.2,55.71a4.34,4.34,0,0,1-1,2.81,2.75,2.75,0,0,1-4.53,0,4.62,4.62,0,0,1,0-5.61,2.79,2.79,0,0,1,4.53,0A4.31,4.31,0,0,1,124.2,55.71Z"/><path d="M144.41,86.29H126.83V78.48h7.27V63h6.4V78.48h3.91Zm-7.74,8.1a4.38,4.38,0,0,1-.93,2.81,2.74,2.74,0,0,1-4.5,0,4.39,4.39,0,0,1-.94-2.81,4.44,4.44,0,0,1,.94-2.82,2.74,2.74,0,0,1,4.5,0A4.43,4.43,0,0,1,136.67,94.39Zm7.3,0a4.38,4.38,0,0,1-.93,2.83,2.81,2.81,0,0,1-2.28,1.16,2.72,2.72,0,0,1-2.23-1.18,4.38,4.38,0,0,1-.92-2.81,4.42,4.42,0,0,1,.92-2.82,2.75,2.75,0,0,1,2.23-1.18A2.82,2.82,0,0,1,143,91.56,4.36,4.36,0,0,1,144,94.39Z"/><path d="M156.42,78.41q0,7.88-6.52,7.88h-7.18V78.48H146a6.93,6.93,0,0,0,2.86-.29q1.17-.64,1.17-3.27V63h6.4Zm-3.33-22.55a4.35,4.35,0,0,1-.94,2.81,2.74,2.74,0,0,1-4.5,0,4.73,4.73,0,0,1,0-5.63,2.74,2.74,0,0,1,4.5,0A4.38,4.38,0,0,1,153.09,55.86Zm7.3,0a4.4,4.4,0,0,1-.93,2.83,2.86,2.86,0,0,1-2.28,1.16,2.76,2.76,0,0,1-2.24-1.18,4.77,4.77,0,0,1,0-5.63,2.76,2.76,0,0,1,2.24-1.18A2.86,2.86,0,0,1,159.46,53,4.41,4.41,0,0,1,160.39,55.86Z"/><path d="M170.2,94.9a9.56,9.56,0,0,1-1.52,5.63,5.16,5.16,0,0,1-4.38,2.18h-9V94.46h5.55q2.87,0,2.86-4.25V62.94h6.46Z"/><path d="M195.14,39.72a33.38,33.38,0,0,1-7.76,1,39.11,39.11,0,0,1-6.5-.81,39,39,0,0,0-6.5-.81q-3.58,0-3.58,4.63h-4.07q0-11,6.77-11a42.08,42.08,0,0,1,7,.85,42.93,42.93,0,0,0,7,.84,43.12,43.12,0,0,0,7.66-.69Zm-11,47.4h-6.42V45.87h6.42Z"/></g></g></svg>