<svg xmlns="http://www.w3.org/2000/svg" xmlns:xlink="http://www.w3.org/1999/xlink" viewBox="0 0 1080 95.88"><defs><style>.cls-1{opacity:0.81;}.cls-2{fill:url(#linear-gradient);}.cls-3{fill:url(#linear-gradient-2);}.cls-4{fill:url(#linear-gradient-3);}.cls-5{fill:url(#linear-gradient-4);}.cls-6{fill:url(#linear-gradient-5);}.cls-7{fill:url(#linear-gradient-6);}.cls-8{fill:url(#linear-gradient-7);}.cls-9{fill:url(#linear-gradient-8);}.cls-10{fill:url(#linear-gradient-9);}.cls-11{fill:url(#linear-gradient-10);}.cls-12{fill:url(#linear-gradient-11);}.cls-13{fill:url(#linear-gradient-12);}.cls-14{fill:url(#linear-gradient-13);}.cls-15{fill:url(#linear-gradient-14);}.cls-16{fill:url(#linear-gradient-15);}.cls-17{fill:url(#linear-gradient-16);}.cls-18{fill:url(#linear-gradient-17);}.cls-19{fill:url(#linear-gradient-18);}.cls-20{fill:url(#linear-gradient-19);}.cls-21{fill:url(#linear-gradient-20);}.cls-22{fill:url(#linear-gradient-21);}.cls-23{fill:url(#linear-gradient-22);}.cls-24{fill:url(#linear-gradient-23);}.cls-25{fill:url(#linear-gradient-24);}.cls-26{fill:url(#linear-gradient-25);}.cls-27{fill:url(#linear-gradient-26);}.cls-28{fill:url(#linear-gradient-27);}.cls-29{fill:url(#linear-gradient-28);}.cls-30{fill:url(#linear-gradient-29);}.cls-31{fill:url(#linear-gradient-30);}.cls-32{fill:url(#linear-gradient-31);}.cls-33{fill:url(#linear-gradient-32);}.cls-34{fill:url(#linear-gradient-33);}.cls-35{fill:url(#linear-gradient-34);}.cls-36{fill:url(#linear-gradient-35);}.cls-37{fill:url(#linear-gradient-36);}.cls-38{fill:url(#linear-gradient-37);}.cls-39{fill:url(#linear-gradient-38);}.cls-40{fill:url(#linear-gradient-39);}.cls-41{fill:url(#linear-gradient-40);}.cls-42{fill:url(#linear-gradient-41);}.cls-43{fill:url(#linear-gradient-42);}.cls-44{fill:url(#linear-gradient-43);}.cls-45{fill:url(#linear-gradient-44);}.cls-46{fill:url(#linear-gradient-45);}.cls-47{fill:url(#linear-gradient-46);}.cls-48{fill:url(#linear-gradient-47);}.cls-49{fill:url(#linear-gradient-48);}.cls-50{fill:url(#linear-gradient-49);}.cls-51{fill:url(#linear-gradient-50);}.cls-52{fill:url(#linear-gradient-51);}.cls-53{fill:url(#linear-gradient-52);}.cls-54{fill:url(#linear-gradient-53);}.cls-55{fill:url(#linear-gradient-54);}.cls-56{fill:url(#linear-gradient-55);}.cls-57{fill:url(#linear-gradient-56);}.cls-58{fill:url(#linear-gradient-57);}.cls-59{fill:url(#linear-gradient-58);}.cls-60{fill:url(#linear-gradient-59);}.cls-61{fill:url(#linear-gradient-60);}.cls-62{fill:url(#linear-gradient-61);}.cls-63{fill:url(#linear-gradient-62);}</style><linearGradient id="linear-gradient" y1="47.94" x2="1080" y2="47.94" gradientUnits="userSpaceOnUse"><stop offset="0" stop-color="#17ff17"/><stop offset="0.02" stop-color="#1dff17"/><stop offset="0.04" stop-color="#2eff17"/><stop offset="0.06" stop-color="#4bff17"/><stop offset="0.09" stop-color="#73ff17"/><stop offset="0.12" stop-color="#a6ff17"/><stop offset="0.15" stop-color="#e3ff17"/><stop offset="0.17" stop-color="#ffff17"/><stop offset="0.21" stop-color="#fcde1e"/><stop offset="0.3" stop-color="#f48b2f"/><stop offset="0.33" stop-color="#f16836"/><stop offset="0.37" stop-color="#f35c32"/><stop offset="0.43" stop-color="#f83d26"/><stop offset="0.5" stop-color="#ff1717"/><stop offset="0.67" stop-color="#6a3691"/><stop offset="0.7" stop-color="#663596"/><stop offset="0.73" stop-color="#5c31a4"/><stop offset="0.76" stop-color="#4a2abb"/><stop offset="0.8" stop-color="#3121dc"/><stop offset="0.83" stop-color="#1717ff"/><stop offset="0.85" stop-color="#1720ff"/><stop offset="0.87" stop-color="#1738ff"/><stop offset="0.9" stop-color="#1760ff"/><stop offset="0.94" stop-color="#1797ff"/><stop offset="0.98" stop-color="#17dcff"/><stop offset="1" stop-color="#17ffff"/></linearGradient><linearGradient id="linear-gradient-2" x1="18.66" y1="18.22" x2="211.52" y2="18.22" gradientUnits="userSpaceOnUse"><stop offset="0" stop-color="#fff" stop-opacity="0.37"/><stop offset="1" stop-color="#fff" stop-opacity="0.13"/></linearGradient><linearGradient id="linear-gradient-3" x1="5.62" y1="25.25" x2="211.52" y2="25.25" gradientUnits="userSpaceOnUse"><stop offset="0" stop-color="#fff" stop-opacity="0.05"/><stop offset="1" stop-color="#fff" stop-opacity="0.5"/></linearGradient><linearGradient id="linear-gradient-4" y1="34.8" x2="161.13" y2="34.8" gradientUnits="userSpaceOnUse"><stop offset="0" stop-color="#fff" stop-opacity="0.03"/><stop offset="1" stop-color="#fff" stop-opacity="0.23"/></linearGradient><linearGradient id="linear-gradient-5" x1="0" y1="37.99" x2="63.74" y2="37.99" xlink:href="#linear-gradient-2"/><linearGradient id="linear-gradient-6" y1="80.02" x2="63.74" y2="80.02" xlink:href="#linear-gradient-4"/><linearGradient id="linear-gradient-7" x1="52.98" y1="73.06" x2="161.13" y2="73.06" xlink:href="#linear-gradient-3"/><linearGradient id="linear-gradient-8" x1="77.19" y1="73.06" x2="252.17" y2="73.06" xlink:href="#linear-gradient-2"/><linearGradient id="linear-gradient-9" x1="0" y1="92.69" x2="12.64" y2="92.69" xlink:href="#linear-gradient-3"/><linearGradient id="linear-gradient-10" x1="166.63" y1="8.12" x2="311.79" y2="8.12" xlink:href="#linear-gradient-2"/><linearGradient id="linear-gradient-11" x1="275.07" y1="8.12" x2="328.03" y2="8.12" xlink:href="#linear-gradient-3"/><linearGradient id="linear-gradient-12" x1="311.79" y1="8.12" x2="407.85" y2="8.12" xlink:href="#linear-gradient-2"/><linearGradient id="linear-gradient-13" x1="311.79" y1="14.06" x2="470.31" y2="14.06" xlink:href="#linear-gradient-3"/><linearGradient id="linear-gradient-14" x1="4476.86" y1="50.16" x2="4622.44" y2="50.16" gradientTransform="matrix(-1, 0, 0, 1, 4929.05, 0)" xlink:href="#linear-gradient-4"/><linearGradient id="linear-gradient-15" x1="4617.26" y1="50.16" x2="4717.52" y2="50.16" gradientTransform="matrix(-1, 0, 0, 1, 4929.05, 0)" xlink:href="#linear-gradient-2"/><linearGradient id="linear-gradient-16" x1="4622.44" y1="60.25" x2="4767.93" y2="60.25" gradientTransform="matrix(-1, 0, 0, 1, 4929.05, 0)" xlink:href="#linear-gradient-4"/><linearGradient id="linear-gradient-17" x1="161.13" y1="73.06" x2="306.61" y2="73.06" xlink:href="#linear-gradient-3"/><linearGradient id="linear-gradient-18" x1="303.42" y1="90.1" x2="387.82" y2="90.1" xlink:href="#linear-gradient-2"/><linearGradient id="linear-gradient-19" x1="306.61" y1="74.32" x2="494.27" y2="74.32" xlink:href="#linear-gradient-3"/><linearGradient id="linear-gradient-20" x1="4434.78" y1="56.09" x2="4622.44" y2="56.09" gradientTransform="matrix(-1, 0, 0, 1, 4929.05, 0)" xlink:href="#linear-gradient-2"/><linearGradient id="linear-gradient-21" x1="455.4" y1="74.32" x2="551.94" y2="74.32" xlink:href="#linear-gradient-2"/><linearGradient id="linear-gradient-22" x1="489.36" y1="89.48" x2="561.48" y2="89.48" xlink:href="#linear-gradient-4"/><linearGradient id="linear-gradient-23" x1="551.94" y1="86.68" x2="660.34" y2="86.68" xlink:href="#linear-gradient-2"/><linearGradient id="linear-gradient-24" x1="4268.72" y1="63.42" x2="4377.11" y2="63.42" gradientTransform="matrix(-1, 0, 0, 1, 4929.05, 0)" xlink:href="#linear-gradient-4"/><linearGradient id="linear-gradient-25" x1="4349.8" y1="63.42" x2="4434.78" y2="63.42" gradientTransform="matrix(-1, 0, 0, 1, 4929.05, 0)" xlink:href="#linear-gradient-3"/><linearGradient id="linear-gradient-26" x1="480.77" y1="26.51" x2="579.25" y2="26.51" xlink:href="#linear-gradient-2"/><linearGradient id="linear-gradient-27" x1="452.19" y1="26.51" x2="494.27" y2="26.51" xlink:href="#linear-gradient-4"/><linearGradient id="linear-gradient-28" x1="498.96" y1="22.02" x2="632" y2="22.02" xlink:href="#linear-gradient-4"/><linearGradient id="linear-gradient-29" x1="531.04" y1="11.13" x2="640.48" y2="11.13" xlink:href="#linear-gradient-3"/><linearGradient id="linear-gradient-30" x1="632" y1="11.13" x2="747.18" y2="11.13" xlink:href="#linear-gradient-2"/><linearGradient id="linear-gradient-31" x1="680.56" y1="9.86" x2="773.03" y2="9.86" xlink:href="#linear-gradient-4"/><linearGradient id="linear-gradient-32" x1="4181.87" y1="31.07" x2="4297.05" y2="31.07" gradientTransform="matrix(-1, 0, 0, 1, 4929.05, 0)" xlink:href="#linear-gradient-4"/><linearGradient id="linear-gradient-33" x1="4240.62" y1="32.89" x2="4349.8" y2="32.89" gradientTransform="matrix(-1, 0, 0, 1, 4929.05, 0)" xlink:href="#linear-gradient-2"/><linearGradient id="linear-gradient-34" x1="4240.62" y1="60.07" x2="4349.8" y2="60.07" gradientTransform="matrix(-1, 0, 0, 1, 4929.05, 0)" xlink:href="#linear-gradient-3"/><linearGradient id="linear-gradient-35" x1="4090.87" y1="63.72" x2="4268.72" y2="63.72" gradientTransform="matrix(-1, 0, 0, 1, 4929.05, 0)" xlink:href="#linear-gradient-2"/><linearGradient id="linear-gradient-36" x1="4090.87" y1="52.12" x2="4240.62" y2="52.12" gradientTransform="matrix(-1, 0, 0, 1, 4929.05, 0)" xlink:href="#linear-gradient-3"/><linearGradient id="linear-gradient-37" x1="4090.87" y1="84.74" x2="4268.72" y2="84.74" gradientTransform="matrix(-1, 0, 0, 1, 4929.05, 0)" xlink:href="#linear-gradient-4"/><linearGradient id="linear-gradient-38" x1="638.97" y1="86.68" x2="676.04" y2="86.68" xlink:href="#linear-gradient-3"/><linearGradient id="linear-gradient-39" x1="668.7" y1="90.33" x2="838.18" y2="90.33" xlink:href="#linear-gradient-2"/><linearGradient id="linear-gradient-40" x1="785.32" y1="90.33" x2="838.18" y2="90.33" xlink:href="#linear-gradient-3"/><linearGradient id="linear-gradient-41" x1="809.05" y1="90.33" x2="854.43" y2="90.33" xlink:href="#linear-gradient-2"/><linearGradient id="linear-gradient-42" x1="838.18" y1="79.35" x2="922.62" y2="79.35" xlink:href="#linear-gradient-3"/><linearGradient id="linear-gradient-43" x1="884.78" y1="79.35" x2="989.23" y2="79.35" xlink:href="#linear-gradient-2"/><linearGradient id="linear-gradient-44" x1="932.78" y1="90.52" x2="994.35" y2="90.52" xlink:href="#linear-gradient-3"/><linearGradient id="linear-gradient-45" x1="989.23" y1="79.25" x2="1080" y2="79.25" xlink:href="#linear-gradient-2"/><linearGradient id="linear-gradient-46" x1="1075.57" y1="94.59" x2="1080" y2="94.59" xlink:href="#linear-gradient-4"/><linearGradient id="linear-gradient-47" x1="3851.46" y1="65.05" x2="4006.43" y2="65.05" gradientTransform="matrix(-1, 0, 0, 1, 4929.05, 0)" xlink:href="#linear-gradient-3"/><linearGradient id="linear-gradient-48" x1="989.23" y1="64.98" x2="1080" y2="64.98" xlink:href="#linear-gradient-4"/><linearGradient id="linear-gradient-49" x1="1031.26" y1="33.45" x2="1080" y2="33.45" xlink:href="#linear-gradient-3"/><linearGradient id="linear-gradient-50" x1="1077.59" y1="44.27" x2="1080" y2="44.27" xlink:href="#linear-gradient-3"/><linearGradient id="linear-gradient-51" x1="3851.46" y1="45.97" x2="4006.43" y2="45.97" gradientTransform="matrix(-1, 0, 0, 1, 4929.05, 0)" xlink:href="#linear-gradient-2"/><linearGradient id="linear-gradient-52" x1="3897.79" y1="40.18" x2="4006.43" y2="40.18" gradientTransform="matrix(-1, 0, 0, 1, 4929.05, 0)" xlink:href="#linear-gradient-4"/><linearGradient id="linear-gradient-53" x1="4001.01" y1="40.18" x2="4181.87" y2="40.18" gradientTransform="matrix(-1, 0, 0, 1, 4929.05, 0)" xlink:href="#linear-gradient-2"/><linearGradient id="linear-gradient-54" x1="747.19" y1="9.86" x2="928.04" y2="9.86" xlink:href="#linear-gradient-3"/><linearGradient id="linear-gradient-55" x1="895.53" y1="8.9" x2="1035.88" y2="8.9" xlink:href="#linear-gradient-2"/><linearGradient id="linear-gradient-56" x1="3893.17" y1="17.02" x2="4001.01" y2="17.02" gradientTransform="matrix(-1, 0, 0, 1, 4929.05, 0)" xlink:href="#linear-gradient-3"/><linearGradient id="linear-gradient-57" x1="1012.75" y1="2.58" x2="1042.08" y2="2.58" xlink:href="#linear-gradient-3"/><linearGradient id="linear-gradient-58" x1="1035.89" y1="4.64" x2="1080" y2="4.64" xlink:href="#linear-gradient-4"/><linearGradient id="linear-gradient-59" x1="1031.25" y1="17.02" x2="1080" y2="17.02" xlink:href="#linear-gradient-2"/><linearGradient id="linear-gradient-60" x1="4006.43" y1="52.12" x2="4181.87" y2="52.12" gradientTransform="matrix(-1, 0, 0, 1, 4929.05, 0)" xlink:href="#linear-gradient-4"/><linearGradient id="linear-gradient-61" x1="277.45" y1="90.1" x2="306.61" y2="90.1" xlink:href="#linear-gradient-4"/><linearGradient id="linear-gradient-62" x1="143.71" y1="18.22" x2="311.79" y2="18.22" xlink:href="#linear-gradient-4"/></defs><g id="Layer_2" data-name="Layer 2"><g id="Layer_1-2" data-name="Layer 1"><g id="banner"><g class="cls-1"><path class="cls-2" d="M1080,.26V95.88H0V.26H166.6L164.2,0h0l2.39.26Z"/></g><path class="cls-3" d="M211.52,36.17,18.66.26H143.72l30.95,16.4Z"/><path class="cls-4" d="M211.52,36.17,161.13,50.24,5.62.26h13Z"/><path class="cls-5" d="M161.13,50.24,63.74,69.35,0,6.63V.26H5.62Z"/><path class="cls-6" d="M63.74,69.35,28.82,66.51,0,64.16V6.63Z"/><path class="cls-7" d="M63.74,69.35Q58.36,82.63,53,95.88H12.64L0,89.5V64.16l28.82,2.35Z"/><path class="cls-8" d="M161.13,50.24,77.19,95.88H53q5.39-13.26,10.76-26.53Z"/><path class="cls-9" d="M252.17,95.88h-175l83.94-45.64Z"/><path class="cls-10" d="M12.64,95.88H0V89.5Z"/><path class="cls-11" d="M311.79,16l-87-9.43L166.63.26H275.07Z"/><path class="cls-12" d="M328,.26l-4.5,4.36Q317.67,10.31,311.79,16L275.07.26Z"/><path class="cls-13" d="M407.85.26,311.79,16q5.86-5.7,11.74-11.37L328,.26Z"/><path class="cls-14" d="M470.31.26l-18.12,27.6L311.79,16,407.85.26Z"/><path class="cls-15" d="M306.61,84.33,452.19,27.86,311.8,16Q309.19,50.16,306.61,84.33Z"/><path class="cls-16" d="M211.53,36.18q47.54,24.06,95.08,48.15Q309.2,50.16,311.8,16Z"/><path class="cls-17" d="M161.13,50.24,306.61,84.33q-47.53-24.09-95.08-48.15Z"/><path class="cls-18" d="M306.61,84.32Q292,90.11,277.45,95.88H252.17l-91-45.64Z"/><path class="cls-19" d="M387.82,95.88h-84.4c1.07-3.85,2.12-7.7,3.19-11.56h0Z"/><path class="cls-20" d="M494.27,52.76,455.4,95.88H387.82L306.61,84.32Z"/><path class="cls-21" d="M306.61,84.33,494.27,52.76l-42.08-24.9Z"/><path class="cls-22" d="M551.94,83.07,489.36,95.88h-34l38.87-43.12Z"/><path class="cls-23" d="M561.48,95.88H489.36l62.58-12.81Q556.72,89.48,561.48,95.88Z"/><path class="cls-24" d="M660.34,77.47,639,95.88H561.48q-4.77-6.41-9.54-12.81Z"/><path class="cls-25" d="M551.94,83.07l108.4-5.59-81.09-33.7Z"/><path class="cls-26" d="M494.27,52.76l57.67,30.31,27.31-39.29Z"/><path class="cls-27" d="M579.25,43.77l-85,9L480.77.26H499l46.41,25.15Z"/><path class="cls-28" d="M494.27,52.76l-42.08-24.9L470.31.26h10.46Z"/><path class="cls-29" d="M632,22Q605.63,32.9,579.25,43.77L545.37,25.41,499,.26H531Z"/><path class="cls-30" d="M640.48.26Q636.25,11.12,632,22L531,.26Z"/><path class="cls-31" d="M747.18,19.46Q689.6,20.74,632,22q4.25-10.86,8.48-21.73h40.08Z"/><path class="cls-32" d="M773,.26l-25.84,19.2h0L680.56.26Z"/><path class="cls-33" d="M632,22l56.43,20.67,58.76-23.21Z"/><path class="cls-34" d="M579.25,43.78l109.18-1.11L632,22Z"/><path class="cls-35" d="M579.25,43.78l81.09,33.7q14-17.41,28.09-34.81Z"/><path class="cls-36" d="M660.34,77.48l177.84,7.29L688.43,42.67Q674.38,60.07,660.34,77.48Z"/><path class="cls-37" d="M688.43,42.67l149.75,42.1-91-65.31Z"/><path class="cls-38" d="M660.34,77.48,676.05,92l162.13-7.23Z"/><path class="cls-39" d="M676,92l-7.34,3.88H639l21.37-18.41,11.85,11Z"/><path class="cls-40" d="M838.18,84.77,785.32,95.88H668.7L676,92Z"/><path class="cls-41" d="M838.18,84.77,809.05,95.88H785.32Z"/><path class="cls-42" d="M854.43,95.88H809.05l29.13-11.11Z"/><path class="cls-43" d="M922.62,62.82,884.78,95.88H854.41L838.18,84.77Z"/><path class="cls-44" d="M989.23,85.16,932.78,95.88h-48l37.84-33.06Z"/><path class="cls-45" d="M994.35,95.88H932.78l56.45-10.72Q991.8,90.52,994.35,95.88Z"/><path class="cls-46" d="M1080,62.62V93.3l-4.43,2.58H994.35q-2.57-5.35-5.12-10.72Z"/><path class="cls-47" d="M1080,93.3v2.58h-4.43Z"/><path class="cls-48" d="M922.62,62.82l66.61,22.34,88.36-40.23Z"/><path class="cls-49" d="M1077.59,44.93l2.41-.13V62.62L989.23,85.16l88.36-40.23Z"/><path class="cls-50" d="M1080,22V43.61c-.8.45-1.6.88-2.41,1.32h0l-46.33-15.81Z"/><path class="cls-51" d="M1077.59,44.93c.81-.44,1.61-.87,2.41-1.32V44.8Z"/><path class="cls-52" d="M922.62,62.82l155-17.89-46.33-15.81Z"/><path class="cls-53" d="M922.62,62.82l108.64-33.7L928,17.53Q925.33,40.18,922.62,62.82Z"/><path class="cls-54" d="M747.19,19.46,922.62,62.82q2.7-22.64,5.42-45.29Z"/><path class="cls-55" d="M928,17.53,747.19,19.46,773,.26h122.5Z"/><path class="cls-56" d="M1035.88,4.91,928,17.53h0L895.53.26h117.22l1.07.21Q1024.84,2.71,1035.88,4.91Z"/><path class="cls-57" d="M928,17.53l103.22,11.59q2.31-12.1,4.63-24.21Z"/><path class="cls-58" d="M1042.08.26l-6.19,4.65h0q-11-2.2-22.06-4.44l-1.07-.21Z"/><path class="cls-59" d="M1080,.26V9l-44.11-4.12,6.19-4.65Z"/><path class="cls-60" d="M1035.89,4.91,1080,9V22l-48.74,7.15h0c.25-1.27.49-2.53.73-3.79,0-.08,0-.16,0-.24l.39-2Q1034.16,14,1035.89,4.91Z"/><path class="cls-61" d="M747.19,19.46l91,65.31,84.44-21.95Z"/><path class="cls-62" d="M306.61,84.32c-1.07,3.86-2.12,7.71-3.19,11.56h-26Q292,90.12,306.61,84.32Z"/><path class="cls-63" d="M311.79,16,211.53,36.17h0L174.67,16.66l-31-16.4H166.6l58.21,6.3Z"/></g></g></g></svg>